<?xml version="1.0" encoding="utf-8"?>
<!-- Generator: Adobe Illustrator 26.5.0, SVG Export Plug-In . SVG Version: 6.00 Build 0)  -->
<svg version="1.1" xmlns="http://www.w3.org/2000/svg" xmlns:xlink="http://www.w3.org/1999/xlink" x="0px" y="0px"
	 viewBox="0 0 500 319.65" style="enable-background:new 0 0 500 319.65;" xml:space="preserve">
<style type="text/css">
	.st0{display:none;}
	.st1{display:inline;}
	.st2{fill:#407BFF;}
	.st3{opacity:0.9;fill:#FFFFFF;}
	.st4{fill:#F5F5F5;}
	.st5{opacity:0.6;fill:#FFFFFF;enable-background:new    ;}
	.st6{fill:#FFFFFF;}
	.st7{opacity:0.6;fill:#FFFFFF;}
	.st8{opacity:0.1;enable-background:new    ;}
	.st9{opacity:0.7;fill:#FFFFFF;}
	.st10{opacity:0.2;enable-background:new    ;}
	.st11{opacity:0.4;fill:#FFFFFF;}
	.st12{fill:none;stroke:#FFFFFF;stroke-miterlimit:10;}
	.st13{fill:none;stroke:#FFFFFF;stroke-miterlimit:10;stroke-dasharray:5.2837,5.2837;}
	.st14{fill:none;stroke:#FFFFFF;stroke-miterlimit:10;stroke-dasharray:4.5294,4.5294;}
	.st15{fill:#407BFF;stroke:#FFFFFF;stroke-miterlimit:10;}
	.st16{fill:none;stroke:#FFFFFF;stroke-width:1.5;stroke-linecap:round;stroke-linejoin:round;stroke-miterlimit:10;}
	.st17{opacity:0.5;fill:#FFFFFF;}
	.st18{fill:none;stroke:#407BFF;stroke-miterlimit:10;}
	.st19{fill:#FFFFFF;stroke:#407BFF;stroke-miterlimit:10;}
	.st20{opacity:0.4;enable-background:new    ;}
	.st21{fill:#263238;}
	.st22{opacity:0.2;fill:#FFFFFF;}
	.st23{opacity:0.1;}
	.st24{opacity:0.3;enable-background:new    ;}
	.st25{fill:#EBB376;}
	.st26{fill:none;stroke:#263238;stroke-width:0.5;stroke-linecap:round;stroke-linejoin:round;stroke-miterlimit:10;}
	.st27{opacity:0.2;fill:#FFFFFF;enable-background:new    ;}
	.st28{opacity:0.3;fill:#FFFFFF;enable-background:new    ;}
	.st29{fill:#B97964;}
	.st30{opacity:0.4;fill:#FFFFFF;enable-background:new    ;}
	.st31{fill:#A24E3F;}
	.st32{fill:none;stroke:#FFFFFF;stroke-width:2;stroke-linecap:round;stroke-linejoin:round;stroke-miterlimit:10;}
</style>
<g id="Background_Complete">
</g>
<g id="Background_Simple" class="st0">
	<g class="st1">
		<path class="st2" d="M152.92-30.16c19.94-11.22,42.32-18.28,65.13-18.44c26.76-0.18,54.02,9.77,72.27,29.35
			c7.37,7.91,13.16,17.16,20.4,25.19c7.24,8.03,16.48,15.02,27.22,16.3c11.54,1.37,22.8-4.01,34.39-4.74
			c27.01-1.7,45.94,23.23,47.62,48.12c2,29.58-19.85,60.34-39.55,80.09c-23.89,23.95-51.86,43.2-78.68,63.63
			c-26.13,19.9-49.8,43.42-78.66,59.49c-12.56,7-26.36,12.6-40.74,12.74c-21.82,0.22-38.74-12.93-42.59-34.45
			c-2.39-13.36-0.07-26.94-2.27-40.34c-5.44-33.08-35.97-55.94-49.59-86.58C76.5,94.63,77.81,64.36,88.7,38.59
			s30.76-47.17,54.11-62.58C146.1-26.16,149.48-28.23,152.92-30.16z"/>
		<path class="st3" d="M152.92-30.16c19.94-11.22,42.32-18.28,65.13-18.44c26.76-0.18,54.02,9.77,72.27,29.35
			c7.37,7.91,13.16,17.16,20.4,25.19c7.24,8.03,16.48,15.02,27.22,16.3c11.54,1.37,22.8-4.01,34.39-4.74
			c27.01-1.7,45.94,23.23,47.62,48.12c2,29.58-19.85,60.34-39.55,80.09c-23.89,23.95-51.86,43.2-78.68,63.63
			c-26.13,19.9-49.8,43.42-78.66,59.49c-12.56,7-26.36,12.6-40.74,12.74c-21.82,0.22-38.74-12.93-42.59-34.45
			c-2.39-13.36-0.07-26.94-2.27-40.34c-5.44-33.08-35.97-55.94-49.59-86.58C76.5,94.63,77.81,64.36,88.7,38.59
			s30.76-47.17,54.11-62.58C146.1-26.16,149.48-28.23,152.92-30.16z"/>
	</g>
</g>
<g id="Shadow_1_">
	<ellipse id="_x3C_Path_x3E__359_" class="st4" cx="250" cy="292.72" rx="193.89" ry="11.32"/>
</g>
<g id="Ladder">
</g>
<g id="interface">
	<g>
		<g>
			<rect x="127.2" y="248.33" class="st2" width="67.15" height="43.67"/>
			<rect x="127.2" y="248.33" class="st5" width="67.15" height="43.67"/>
		</g>
		<rect x="129.66" y="256.52" class="st2" width="62.24" height="33.3"/>
		<g>
			<rect x="134.73" y="261.5" class="st6" width="46.04" height="1.43"/>
			<rect x="134.73" y="265.88" class="st6" width="22.09" height="1.43"/>
			<rect x="134.73" y="270.27" class="st6" width="27.82" height="1.43"/>
			<rect x="134.73" y="274.66" class="st6" width="9.81" height="1.43"/>
			<rect x="134.73" y="279.05" class="st6" width="6.35" height="1.43"/>
		</g>
	</g>
</g>
<g id="Monitor">
	<g>
		<g>
			<polygon class="st2" points="277.33,292.72 222.67,292.72 231.92,220.05 268.08,220.05 			"/>
			<polygon class="st7" points="277.33,292.72 222.67,292.72 229,243.01 231.93,220.05 268.07,220.05 272.39,253.92 			"/>
			<polygon class="st8" points="272.39,253.92 229,243.01 231.93,220.05 268.07,220.05 			"/>
		</g>
		<g>
			<path class="st2" d="M378.87,40.87h-5.46H126.6h-5.46c-3.64,0-6.6,2.95-6.6,6.6v174.48c0,3.64,2.95,6.6,6.6,6.6h5.46H373.4h5.46
				c3.64,0,6.6-2.95,6.6-6.6V47.46C385.46,43.82,382.51,40.87,378.87,40.87z"/>
			<path class="st9" d="M378.87,40.87h-5.46H126.6h-5.46c-3.64,0-6.6,2.95-6.6,6.6v174.48c0,3.64,2.95,6.6,6.6,6.6h5.46H373.4h5.46
				c3.64,0,6.6-2.95,6.6-6.6V47.46C385.46,43.82,382.51,40.87,378.87,40.87z"/>
		</g>
		<rect x="123.22" y="47.32" class="st2" width="253.57" height="168.25"/>
		<g>
			<path class="st2" d="M295.91,287.26h-91.82c-0.57,0-1.04,0.46-1.04,1.04v3.3c0,0.57,0.46,1.04,1.04,1.04h91.82
				c0.57,0,1.04-0.46,1.04-1.04v-3.3C296.95,287.73,296.48,287.26,295.91,287.26z"/>
			<path class="st9" d="M295.91,287.26h-91.82c-0.57,0-1.04,0.46-1.04,1.04v3.3c0,0.57,0.46,1.04,1.04,1.04h91.82
				c0.57,0,1.04-0.46,1.04-1.04v-3.3C296.95,287.73,296.48,287.26,295.91,287.26z"/>
		</g>
		<g>
			<rect x="123.22" y="47.48" class="st10" width="253.57" height="25.08"/>
			<rect x="123.22" y="72.86" class="st11" width="108.66" height="142.71"/>
			<g>
				<g>
					<g>
						<polyline class="st12" points="337.76,109.26 337.76,111.76 335.26,111.76 						"/>
						<line class="st13" x1="329.98" y1="111.76" x2="248.08" y2="111.76"/>
						<polyline class="st12" points="245.44,111.76 242.94,111.76 242.94,109.26 						"/>
						<line class="st14" x1="242.94" y1="104.74" x2="242.94" y2="61.71"/>
						<polyline class="st12" points="242.94,59.44 242.94,56.94 245.44,56.94 						"/>
						<line class="st13" x1="250.72" y1="56.94" x2="332.62" y2="56.94"/>
						<polyline class="st12" points="335.26,56.94 337.76,56.94 337.76,59.44 						"/>
						<line class="st14" x1="337.76" y1="63.97" x2="337.76" y2="107"/>
					</g>
				</g>
				<g>
					<rect x="336.18" y="55.36" class="st15" width="3.17" height="3.17"/>
					<rect x="336.18" y="110.18" class="st15" width="3.17" height="3.17"/>
					<rect x="241.35" y="55.36" class="st15" width="3.17" height="3.17"/>
					<rect x="241.35" y="110.18" class="st15" width="3.17" height="3.17"/>
				</g>
				<g>
					<rect x="288.77" y="55.36" class="st15" width="3.17" height="3.17"/>
					<rect x="288.77" y="110.18" class="st15" width="3.17" height="3.17"/>
				</g>
				<g>
					<rect x="336.18" y="82.77" class="st15" width="3.17" height="3.17"/>
					<rect x="241.35" y="82.77" class="st15" width="3.17" height="3.17"/>
				</g>
			</g>
			<path class="st9" d="M329.15,85.34h-23.2c-1.05,0-1.89-0.85-1.89-1.89v-6.2c0-1.05,0.85-1.89,1.89-1.89h23.2
				c1.05,0,1.89,0.85,1.89,1.89v6.2C331.04,84.49,330.2,85.34,329.15,85.34z"/>
			<path class="st9" d="M289.15,85.34h-23.2c-1.05,0-1.89-0.85-1.89-1.89v-6.2c0-1.05,0.85-1.89,1.89-1.89h23.2
				c1.05,0,1.89,0.85,1.89,1.89v6.2C291.04,84.49,290.2,85.34,289.15,85.34z"/>
			<path class="st9" d="M237.65,206.93h-23.2c-1.05,0-1.89-0.85-1.89-1.89v-6.2c0-1.05,0.85-1.89,1.89-1.89h23.2
				c1.05,0,1.89,0.85,1.89,1.89v6.2C239.55,206.08,238.7,206.93,237.65,206.93z"/>
			<g>
				<line class="st16" x1="360.05" y1="56.4" x2="368.49" y2="56.4"/>
				<line class="st16" x1="360.05" y1="60.4" x2="368.49" y2="60.4"/>
				<line class="st16" x1="360.05" y1="64.4" x2="368.49" y2="64.4"/>
			</g>
			<rect x="140.41" y="94.98" class="st17" width="85.05" height="85.05"/>
			<g>
				<line class="st18" x1="176.01" y1="101.94" x2="176.01" y2="175.3"/>
				<path class="st18" d="M212.69,175.3L212.69,175.3c-20.26,0-36.68-16.42-36.68-36.68v0c0-20.26,16.42-36.68,36.68-36.68l0,0"/>
				<rect x="211.11" y="100.35" class="st19" width="3.17" height="3.17"/>
				<rect x="211.11" y="173.71" class="st19" width="3.17" height="3.17"/>
				<rect x="174.43" y="137.03" class="st19" width="3.17" height="3.17"/>
				<path class="st19" d="M176.83,101.94c0,0.45-0.37,0.82-0.82,0.82s-0.82-0.37-0.82-0.82c0-0.45,0.37-0.82,0.82-0.82
					S176.83,101.48,176.83,101.94z"/>
				<path class="st19" d="M176.83,175.3c0,0.45-0.37,0.82-0.82,0.82s-0.82-0.37-0.82-0.82c0-0.45,0.37-0.82,0.82-0.82
					S176.83,174.84,176.83,175.3z"/>
			</g>
			<path class="st9" d="M316.93,198.15h-25.75c-4.11,0-7.44-3.33-7.44-7.44l0,0c0-4.11,3.33-7.44,7.44-7.44h25.75
				c4.11,0,7.44,3.33,7.44,7.44l0,0C324.37,194.82,321.04,198.15,316.93,198.15z"/>
			<path class="st9" d="M339.55,134.7h-79.54c-0.9,0-1.63-0.73-1.63-1.63l0,0c0-0.9,0.73-1.63,1.63-1.63h79.54
				c0.9,0,1.63,0.73,1.63,1.63l0,0C341.18,133.97,340.45,134.7,339.55,134.7z"/>
			<path class="st9" d="M339.55,146.58h-79.54c-0.9,0-1.63-0.73-1.63-1.63l0,0c0-0.9,0.73-1.63,1.63-1.63h79.54
				c0.9,0,1.63,0.73,1.63,1.63l0,0C341.18,145.85,340.45,146.58,339.55,146.58z"/>
			<path class="st9" d="M339.55,158.46h-49.54c-0.9,0-1.63-0.73-1.63-1.63l0,0c0-0.9,0.73-1.63,1.63-1.63h49.54
				c0.9,0,1.63,0.73,1.63,1.63l0,0C341.18,157.73,340.45,158.46,339.55,158.46z"/>
			<g>
				<rect x="131.23" y="54.44" class="st20" width="5.62" height="5.62"/>
				<path class="st20" d="M146.33,60.06h-2.74c-0.8,0-1.44-0.64-1.44-1.44v-2.74c0-0.79,0.64-1.44,1.44-1.44h2.74
					c0.8,0,1.44,0.64,1.44,1.44v2.74C147.77,59.41,147.12,60.06,146.33,60.06z"/>
				<path class="st20" d="M156.12,60.06h-0.48c-1.42,0-2.57-1.15-2.57-2.57v-0.48c0-1.42,1.15-2.57,2.57-2.57h0.48
					c1.42,0,2.57,1.15,2.57,2.57v0.48C158.7,58.9,157.54,60.06,156.12,60.06z"/>
			</g>
			<g>
				<g>
					<path class="st3" d="M148.45,192.99v-2.19l-1.13-0.11c-0.15-0.73-0.44-1.42-0.84-2.02l0.72-0.87l-1.55-1.55l-0.87,0.72
						c-0.61-0.4-1.29-0.69-2.02-0.84l-0.11-1.13h-2.19l-0.11,1.13c-0.73,0.15-1.42,0.44-2.02,0.84l-0.87-0.72l-1.55,1.55l0.72,0.87
						c-0.4,0.61-0.69,1.29-0.84,2.02l-1.13,0.11v2.19l1.13,0.11c0.15,0.73,0.44,1.42,0.84,2.02l-0.72,0.87l1.55,1.55l0.87-0.72
						c0.61,0.4,1.29,0.69,2.02,0.84l0.11,1.13h2.19l0.11-1.13c0.73-0.15,1.42-0.44,2.02-0.84l0.87,0.72l1.55-1.55l-0.72-0.87
						c0.4-0.61,0.69-1.29,0.84-2.02L148.45,192.99z M141.56,194.85c-1.64,0-2.96-1.33-2.96-2.96c0-1.64,1.33-2.96,2.96-2.96
						c1.64,0,2.96,1.33,2.96,2.96C144.53,193.53,143.2,194.85,141.56,194.85z"/>
					<path class="st7" d="M157.33,199.17v-1.72l-0.88-0.08c-0.12-0.58-0.35-1.11-0.66-1.59l0.57-0.69l-1.21-1.21l-0.69,0.57
						c-0.47-0.31-1.01-0.54-1.58-0.66l-0.08-0.88h-1.72l-0.08,0.88c-0.58,0.12-1.11,0.35-1.59,0.66l-0.69-0.57l-1.21,1.21l0.57,0.69
						c-0.31,0.48-0.54,1.01-0.66,1.59l-0.88,0.08v1.72l0.88,0.08c0.12,0.58,0.35,1.11,0.66,1.58l-0.57,0.69l1.21,1.21l0.69-0.57
						c0.48,0.31,1.01,0.54,1.59,0.66l0.08,0.88h1.72l0.08-0.88c0.58-0.12,1.11-0.35,1.59-0.66l0.69,0.57l1.21-1.21l-0.57-0.69
						c0.31-0.48,0.54-1.01,0.66-1.58L157.33,199.17z M151.93,200.63c-1.28,0-2.32-1.04-2.32-2.32c0-1.28,1.04-2.32,2.32-2.32
						s2.32,1.04,2.32,2.32C154.25,199.59,153.21,200.63,151.93,200.63z"/>
					<path class="st11" d="M148.45,204.04v-1.44l-0.74-0.07c-0.1-0.48-0.29-0.93-0.55-1.33l0.48-0.58l-1.02-1.02l-0.58,0.48
						c-0.4-0.26-0.85-0.45-1.33-0.55l-0.07-0.74h-1.44l-0.07,0.74c-0.48,0.1-0.93,0.29-1.33,0.55l-0.58-0.48l-1.02,1.02l0.48,0.58
						c-0.26,0.4-0.45,0.85-0.55,1.33l-0.74,0.07l0,1.44l0.74,0.07c0.1,0.48,0.29,0.93,0.55,1.33l-0.48,0.58l1.02,1.02l0.58-0.48
						c0.4,0.26,0.85,0.45,1.33,0.55l0.07,0.74h1.44l0.07-0.74c0.48-0.1,0.93-0.29,1.33-0.55l0.58,0.48l1.02-1.02l-0.48-0.58
						c0.26-0.4,0.45-0.85,0.55-1.33L148.45,204.04z M143.92,205.27c-1.08,0-1.95-0.87-1.95-1.95c0-1.08,0.87-1.95,1.95-1.95
						c1.08,0,1.95,0.87,1.95,1.95C145.87,204.39,145,205.27,143.92,205.27z"/>
				</g>
			</g>
		</g>
		<g>
			<g>
				<polygon class="st2" points="337.18,56.38 341.42,67.71 348.52,60.62 				"/>
				
					<rect x="343.85" y="61.68" transform="matrix(0.7071 -0.7071 0.7071 0.7071 55.6663 262.7225)" class="st2" width="2.24" height="4.97"/>
			</g>
			<polygon class="st11" points="348.52,60.62 337.18,56.38 341.42,67.71 344.18,64.96 345.93,66.71 347.51,65.13 345.76,63.38 			
				"/>
		</g>
		<g>
			<path class="st21" d="M163.46,96.9l10.67,3.99l-5.59-5.59c-0.42,0.23-0.95,0.19-1.31-0.17c-0.43-0.43-0.43-1.13,0-1.56
				c0.43-0.43,1.13-0.43,1.56,0c0.36,0.36,0.4,0.89,0.17,1.31l5.59,5.59l-3.99-10.67l-3.53,0.78l-0.14-1.28l-0.67-0.67l-3.92,3.92
				l0.67,0.67l1.28,0.14L163.46,96.9z"/>
			<path class="st22" d="M163.46,96.9l10.67,3.99l-5.59-5.59c-0.42,0.23-0.95,0.19-1.31-0.17c-0.43-0.43-0.43-1.13,0-1.56
				c0.43-0.43,1.13-0.43,1.56,0c0.36,0.36,0.4,0.89,0.17,1.31l5.59,5.59l-3.99-10.67l-3.53,0.78l-0.14-1.28l-0.67-0.67l-3.92,3.92
				l0.67,0.67l1.28,0.14L163.46,96.9z"/>
		</g>
		<g class="st23">
			<polygon class="st6" points="160.3,47.32 122.72,187.74 122.72,47.32 			"/>
			<polygon class="st6" points="202.71,47.32 157.68,215.57 126.66,215.57 171.68,47.32 			"/>
			<polygon class="st6" points="247.81,47.32 202.78,215.57 188.75,215.57 233.78,47.32 			"/>
			<polygon class="st6" points="289.34,47.32 244.31,215.57 239.29,215.57 284.32,47.32 			"/>
		</g>
	</g>
</g>
<g id="Character_2">
	<g>
		<g>
			<path class="st21" d="M441.9,84.44c3.55,4.1,21.61,38.89,18.12,47.01c-3.49,8.12-32.43-1.24-32.43-1.24l1.73-11.46
				c0,0,11.25,0.4,12.32-0.67c1.08-1.07-15.21-17.33-15.21-17.33L441.9,84.44z"/>
			<g class="st10">
				<path class="st6" d="M460.02,131.45c-0.4,0.93-1.13,1.63-2.11,2.14c-0.01,0-0.02,0.01-0.03,0.02c-0.18,0.09-0.38,0.18-0.58,0.26
					c-0.02,0.01-0.05,0.02-0.08,0.03c-0.17,0.07-0.36,0.14-0.55,0.19c-0.75,0.25-1.59,0.42-2.5,0.52c-0.24,0.03-0.48,0.05-0.73,0.07
					c-0.36,0.03-0.72,0.05-1.09,0.06c-0.31,0.01-0.63,0.02-0.95,0.02c-9.7,0.01-23.81-4.55-23.81-4.55l1.73-11.47
					c0,0,11.24,0.4,12.32-0.67c0.26-0.26-0.51-1.42-1.82-3.03c-0.01-0.01-0.01-0.01-0.02-0.02c-3.18-3.91-9.55-10.42-12.18-13.08
					c-0.74-0.75-1.19-1.2-1.19-1.2l15.47-16.3C445.45,88.53,463.51,123.32,460.02,131.45z"/>
			</g>
		</g>
		<path class="st10" d="M457.91,133.59c-0.01,0-0.02,0.01-0.03,0.02c-0.18,0.09-0.38,0.18-0.58,0.26c-0.02,0.01-0.05,0.02-0.08,0.03
			c-0.17,0.07-0.36,0.14-0.55,0.19c-0.75,0.25-1.59,0.42-2.5,0.52c-0.24,0.03-0.48,0.05-0.73,0.07c-0.36,0.03-0.72,0.05-1.09,0.06
			c-0.31,0.01-0.63,0.02-0.95,0.02c-9.7,0.01-23.81-4.55-23.81-4.55l1.73-11.47c0,0,12.66,1.07,13.74,0
			c0.02-0.02,0.02-0.03,0.03-0.05c0.2-0.42-1.2-1.84-3.27-3.65c-0.01-0.01-0.01-0.01-0.02-0.02c-3.18-3.91-9.55-10.42-12.18-13.08
			l7.32-7.82l5.57-0.6C440.51,93.52,452.81,113.43,457.91,133.59z"/>
		<g>
			<path class="st21" d="M405.41,83.3c-2,1.45-2.99,3.51-2.2,4.6l52.84,72.85c0.79,1.09,3.05,0.79,5.06-0.66
				c2-1.45,2.99-3.51,2.2-4.6l-52.84-72.85C409.68,81.55,407.42,81.85,405.41,83.3z"/>
			<path class="st9" d="M410.47,82.64l52.84,72.85c0.79,1.08-0.2,3.15-2.2,4.6c-2.01,1.46-4.27,1.75-5.05,0.66L403.22,87.9
				c-0.43-0.6-0.33-1.49,0.19-2.43c0.24-0.43,0.58-0.89,1-1.31c0.29-0.3,0.63-0.59,1-0.86C407.42,81.85,409.68,81.55,410.47,82.64z"
				/>
			<path class="st24" d="M463.31,155.49c0.79,1.08-0.2,3.15-2.2,4.6c-2.01,1.46-4.27,1.75-5.05,0.66c-0.43-0.6,0.66-1.5,1.29-2.82
				l-53.94-72.46c0.24-0.43,0.58-0.89,1-1.31l52.85,72.86c0.3-0.3,0.63-0.6,1-0.87C460.26,154.7,462.52,154.41,463.31,155.49z"/>
		</g>
		<g>
			<path class="st2" d="M398.87,81.28c-1.69,1.81-2.27,4.02-1.29,4.93l65.7,61.51c0.98,0.92,3.15,0.2,4.84-1.61
				c1.69-1.81,2.27-4.02,1.29-4.93l-65.7-61.51C402.73,78.75,400.56,79.47,398.87,81.28z"/>
			<path class="st9" d="M403.71,79.67l65.7,61.51c0.98,0.92,0.4,3.13-1.29,4.93c-1.69,1.81-3.86,2.53-4.84,1.61l-65.7-61.51
				c-0.54-0.51-0.61-1.4-0.27-2.42c0.15-0.47,0.4-0.98,0.74-1.47c0.23-0.35,0.51-0.7,0.82-1.04
				C400.56,79.48,402.73,78.75,403.71,79.67z"/>
			<path class="st24" d="M469.41,141.18c0.98,0.92,0.4,3.13-1.29,4.93c-1.69,1.81-3.86,2.53-4.84,1.61
				c-0.54-0.51,0.36-1.6,0.73-3.01l-66.7-60.92c0.15-0.47,0.4-0.98,0.74-1.47l65.71,61.52c0.24-0.35,0.5-0.71,0.81-1.05
				C466.26,140.99,468.43,140.26,469.41,141.18z"/>
		</g>
		<path class="st25" d="M414.66,277.58l-5.01,0.08c-5.09-23.91-8.69-53.5-10.93-75.82c-0.35-3.5-0.67-6.81-0.95-9.9
			c-0.13-1.47-0.26-2.88-0.38-4.24c-0.6-6.71-1.01-12.03-1.26-15.32c-0.18-2.4-0.27-3.72-0.27-3.72h18.1l-0.17,4.61l-0.56,15.22
			l-0.06,1.74l-0.38,10.05l-0.63,17.11C418.37,241.48,414.66,277.58,414.66,277.58z"/>
		<path class="st25" d="M455.26,276.3l-4.93,0.93c-9.87-24.67-19.14-56.26-25.17-78.33c-0.93-3.42-1.79-6.62-2.56-9.52
			c-0.04-0.15-0.07-0.29-0.11-0.43c-1.52-5.76-2.69-10.35-3.42-13.26c-0.56-2.28-0.87-3.53-0.87-3.53l17.84-3.08l1.01,7.5
			l1.49,11.02l0.29,2.16l1.01,7.51l2.71,20.14C452.77,240.09,455.26,276.3,455.26,276.3z"/>
		<path class="st10" d="M438.54,187.6l-15.94,1.78c-0.04-0.15-0.07-0.29-0.11-0.43c-1.52-5.76-2.69-10.35-3.42-13.26l17.98,0.89
			L438.54,187.6z"/>
		<path class="st10" d="M413.79,173.27l-0.56,15.22l-0.06,1.74l-15.4,1.71c-0.13-1.47-0.26-2.88-0.38-4.24
			c-0.6-6.71-1.01-12.03-1.26-15.32L413.79,173.27z"/>
		<path class="st21" d="M399.87,294.2c0.93-0.75,1.99-1.33,3.14-1.7l0,0c0,0,3.41-3.38,5.05-13.57l4.46-1.16
			c1.55-0.38,3.17,0.26,4.06,1.59c0.12,0.18,0.22,0.38,0.28,0.59c0.23,1.09,0.39,2.2,0.48,3.31c0.45,3.45,0.06,11.18,0.06,11.18
			h-0.81l-0.32-7.02c-0.12-2.38-1.94,0.41-2.47,2.98c-0.52,2.57-1.63,5.3-6.86,5.43C400.86,295.94,398.33,295.7,399.87,294.2z"/>
		<path class="st21" d="M416.74,279.44c0.29-2.38,0.39-6.53,0.39-6.53l-9.92,1.1c0,0,1.2,4.71,0.21,8.25
			C412.41,280.95,416.74,279.44,416.74,279.44z"/>
		<path class="st21" d="M440.23,294.2c0.93-0.75,1.99-1.33,3.14-1.7l0,0c0,0,3.41-3.38,5.05-13.57l4.46-1.16
			c1.55-0.38,3.17,0.26,4.06,1.59c0.12,0.18,0.22,0.38,0.28,0.59c0.23,1.09,0.39,2.2,0.48,3.31c0.45,3.45,0.06,11.18,0.06,11.18
			h-0.81l-0.32-7.02c-0.12-2.38-1.94,0.41-2.47,2.98c-0.52,2.57-1.63,5.3-6.86,5.43C441.22,295.94,438.69,295.7,440.23,294.2z"/>
		<path class="st21" d="M457.09,279.44c0.29-2.38,0.39-6.53,0.39-6.53l-9.92,1.1c0,0,1.2,4.71,0.21,8.25
			C452.77,280.95,457.09,279.44,457.09,279.44z"/>
		<path class="st2" d="M440.26,182.69l-18.87,2.41l-0.73,0.09l-3.88-14.22l-1.02,15.24l-20.22-1.06
			c-9.01-52.87,6.39-65.36,6.39-65.36l27.43,5.52c12.42,21.12,9.47,45.66,9.47,45.66L440.26,182.69z"/>
		<g>
			<path class="st26" d="M414.28,53.92c0,2.08-0.92,3.76-2.06,3.76c-1.14,0-2.06-1.68-2.06-3.76c0-2.08,0.92-3.76,2.06-3.76
				C413.36,50.16,414.28,51.85,414.28,53.92z"/>
			<path class="st25" d="M427.83,66.52c-0.07,0.06-0.16,0.13-0.24,0.17c-1.11,0.79-2.38,1.54-3.83,1.87
				c-4.05,0.94-6.82,0.38-8.63-1.45c-0.01,0-0.01,0-0.01,0c-2.53-2.75-3.16-7.62-2.81-13.5c0.16-2.69,0.54-5.04,1.28-6.86
				c0.01-0.02,0.01-0.09,0.02-0.1c0.04-0.07,0.06-0.18,0.1-0.25c1.11-2.55,2.95-4.2,5.89-4.9c1.02-0.24,2.17-0.37,3.47-0.39
				C434.55,40.99,436.61,59.97,427.83,66.52z"/>
			<path class="st10" d="M427.59,66.69c-1.11,0.79-2.38,1.38-3.83,1.71c-4.05,0.94-6.82,0.25-8.63-1.61c1.99,0.44,4.67,0.6,7.27-0.6
				C424.04,65.44,425.87,65.83,427.59,66.69z"/>
			<path class="st25" d="M428.75,77.04c0.71,3.26-3.52,4.59-3.52,4.59c-6.91-2.95-8.19-6.63-8.19-6.63
				c5.77-3.01,4.1-11.51,4.1-11.51l1.17,0.58l8.23,1.61c0,0-2.28,4.38-2.59,5.38c0,0.01-0.01,0.02-0.01,0.03
				C426.4,76.32,428.75,77.04,428.75,77.04z"/>
			<path class="st21" d="M413.6,46.68c0,0-0.63,8.04,6.98,11.49c0,0,3.27,8.35,8.08,8.47c6.56,0.16,12.35-9.18,10.07-18.69
				C435.79,35.61,417.1,34.6,413.6,46.68z"/>
			<path class="st25" d="M416.72,55.86c0-1.25,1.01-3.36,2.96-3.07c2.02,0.3,3.13,5.27-1.82,6.38
				C417.15,59.32,416.72,58.47,416.72,55.86z"/>
			<path class="st21" d="M427.59,38.14c0,0-7.67-1.94-11.9,1.14c-4.95,3.6-6.83,7.32-0.97,13.1c0,0,12.87-4.17,17.15-3.29
				c4.28,0.88,7.34,2.13,7.34,2.13C440.11,42.72,431.87,36.4,427.59,38.14z"/>
			<path class="st21" d="M416.72,53.92c0,0,2.05,9.27-1.14,17.16c0,0,18.2,6.31,24.53,2.89c6.33-3.43,0.53-14.94,0.26-21.58
				c-0.26-6.64-3.15-16.45-12.78-14.25C417.96,40.34,416.72,53.92,416.72,53.92z"/>
			<line class="st26" x1="410.17" y1="53.33" x2="417.86" y2="53.33"/>
		</g>
		<path class="st10" d="M421.39,185.1l-0.73,0.09l-3.88-14.22c0,0,8.32-14.21,5.72-21.61C422.87,149.88,431.83,163.17,421.39,185.1z
			"/>
		<g>
			<path class="st21" d="M405.81,76.32c0,0,9.15-3.26,22.94,0.72c13.79,3.98,14.3,9.86,14.3,9.86s-8.74,19.81-10.11,42.23
				L397,127.79C397,127.79,392.71,96.14,405.81,76.32z"/>
			<path class="st27" d="M443.06,86.89c0,0-8.74,19.81-10.12,42.24L397,127.79c0,0-0.6-4.41-0.66-10.96
				c-0.05-4.57,0.16-10.19,1-16.09c1.2-8.3,3.67-17.16,8.47-24.42c0,0,9.15-3.26,22.94,0.72C442.55,81.02,443.06,86.89,443.06,86.89
				z"/>
		</g>
		<path class="st10" d="M405.31,102.09c0,0-1.49,9.12-8.97,14.74c-0.05-4.57,0.16-10.19,1-16.09L405.31,102.09z"/>
		<path class="st25" d="M365.6,75.7l-4.53-6.72c0,0-0.7-2.92-1.57-3.59c-0.87-0.67-9.59-4.36-10.63-4.34
			c-1.05,0.02-1.05,6.78,0,7.93c1.05,1.15,6.54,3.61,7.97,3.86c1.44,0.25,0.74,0,0.74,0l4.01,7.99L365.6,75.7z"/>
		<g>
			<path class="st21" d="M405.81,76.32c0,0-12.61,4.96-28.02,14.46l-14.62-19.95c0,0-3.95,1.23-5.4,8.08c0,0,7.51,28.62,17.27,31.45
				c9.76,2.84,30.28-8.26,30.28-8.26S411.27,87.18,405.81,76.32z"/>
			<path class="st27" d="M405.81,76.32c0,0-12.61,4.96-28.02,14.46l-14.62-19.95c0,0-3.95,1.23-5.4,8.08c0,0,7.51,28.62,17.27,31.45
				c9.76,2.84,30.28-8.26,30.28-8.26S411.27,87.18,405.81,76.32z"/>
		</g>
		<g>
			<path class="st21" d="M415.06,75.07c0,0,3.19,22.84,13.3,23.76c10.11,0.92,14.64-15.95,12.92-18
				C439.57,78.78,426.55,74.91,415.06,75.07z"/>
			<path class="st28" d="M415.06,75.07c0,0,3.19,22.84,13.3,23.76c10.11,0.92,14.64-15.95,12.92-18
				C439.57,78.78,426.55,74.91,415.06,75.07z"/>
		</g>
	</g>
</g>
<g id="Character_1">
	<g id="_x3C_Group_x3E__81_">
		<polygon class="st29" points="55.36,285.15 62.77,285.15 63.38,268 55.97,268 		"/>
		<path class="st21" d="M63.79,284.29h-9c-0.3,0-0.57,0.21-0.63,0.51l-1.46,6.59c-0.12,0.59,0.25,1.17,0.84,1.3
			c0.08,0.02,0.16,0.02,0.24,0.02c2.91-0.05,5.03-0.23,8.69-0.23c2.25,0,9.04,0.24,12.15,0.24c3.11,0,3.51-3.07,2.24-3.35
			c-5.71-1.24-10-2.97-11.83-4.61C64.7,284.45,64.25,284.28,63.79,284.29z"/>
		<path class="st2" d="M64.3,285.32c-0.07-0.02-0.12-0.08-0.13-0.15c-0.01-0.07,0.02-0.14,0.08-0.17c0.26-0.17,2.66-1.64,3.48-1.22
			c0.19,0.09,0.31,0.28,0.3,0.49c0.05,0.36-0.09,0.71-0.37,0.94c-0.42,0.28-0.92,0.42-1.42,0.38
			C65.59,285.57,64.94,285.48,64.3,285.32z M64.81,285.07c0.86,0.29,1.81,0.24,2.64-0.13c0.18-0.16,0.27-0.39,0.24-0.63
			c-0.01-0.14-0.07-0.21-0.11-0.21c-0.07-0.04-0.15-0.05-0.23-0.05C66.44,284.23,65.58,284.58,64.81,285.07z"/>
		<path class="st2" d="M64.25,285.36c-0.05-0.04-0.09-0.1-0.08-0.16c0.01-0.1,0.19-2.23,1.05-2.93c0.2-0.18,0.48-0.26,0.74-0.23
			c0.27,0,0.51,0.19,0.57,0.46c0.15,0.78-1.33,2.41-2.09,2.83h-0.08C64.32,285.35,64.29,285.36,64.25,285.36z M65.44,282.47
			c-0.52,0.67-0.83,1.47-0.88,2.32c0.76-0.57,1.7-1.81,1.61-2.29c-0.01-0.05-0.03-0.18-0.25-0.18h-0.08
			C65.69,282.32,65.55,282.38,65.44,282.47z"/>
		<polygon class="st10" points="55.97,268.01 63.38,268.01 63.06,276.85 55.65,276.85 		"/>
		<polygon class="st29" points="93.49,285.71 101.14,286.51 102.57,270.03 94.93,269.22 		"/>
		<path class="st21" d="M101.94,284.06h-9c-0.3,0-0.57,0.21-0.63,0.51l-1.46,6.59c-0.12,0.59,0.25,1.17,0.84,1.3
			c0.08,0.02,0.16,0.02,0.24,0.02c2.91-0.05,5.03-0.23,8.69-0.23c2.25,0,9.04,0.24,12.15,0.24c3.11,0,3.51-3.07,2.24-3.35
			c-5.71-1.24-10-2.97-11.83-4.61C102.85,284.22,102.4,284.05,101.94,284.06z"/>
		<path class="st2" d="M102.45,285.08c-0.07-0.02-0.12-0.08-0.13-0.15c-0.01-0.07,0.02-0.14,0.08-0.17
			c0.26-0.17,2.66-1.64,3.48-1.22c0.19,0.09,0.31,0.28,0.3,0.49c0.05,0.36-0.09,0.71-0.37,0.94c-0.42,0.28-0.92,0.42-1.42,0.38
			C103.74,285.34,103.09,285.25,102.45,285.08z M102.96,284.84c0.86,0.29,1.81,0.24,2.64-0.13c0.18-0.16,0.27-0.39,0.24-0.63
			c-0.01-0.14-0.07-0.21-0.11-0.21c-0.07-0.04-0.15-0.05-0.23-0.05C104.59,284,103.73,284.34,102.96,284.84z"/>
		<path class="st2" d="M102.41,285.12c-0.05-0.04-0.09-0.1-0.08-0.16c0.01-0.1,0.19-2.23,1.05-2.93c0.2-0.18,0.48-0.26,0.74-0.23
			c0.27,0,0.51,0.19,0.57,0.46c0.15,0.78-1.33,2.41-2.09,2.83h-0.08C102.47,285.11,102.44,285.12,102.41,285.12z M103.59,282.24
			c-0.52,0.67-0.83,1.47-0.88,2.32c0.76-0.57,1.71-1.81,1.61-2.29c-0.01-0.05-0.03-0.18-0.25-0.18h-0.08
			C103.84,282.09,103.7,282.14,103.59,282.24z"/>
		<polygon class="st10" points="94.93,269.22 102.57,270.03 101.82,278.53 94.18,277.73 		"/>
		<path class="st21" d="M59.02,117.53h39.3c3.74,20.41,15.43,92.62,7.04,156.96l-13.31-1.65c0,0,1.23-85.42-10.52-117
			c-1.35,16.9-2.96,34.88-4.35,44.45c-3.42,23.55-10.74,75.02-10.74,75.02H52.91c0,0,2.77-49.26,4.05-72.41
			C58.36,177.78,58.97,122.69,59.02,117.53z"/>
		<g>
			<polygon class="st2" points="106.89,277.6 90.42,275.15 90.93,270.59 108.06,272.84 			"/>
		</g>
		<g>
			<polygon class="st2" points="68.09,275.43 52.11,275.43 52.11,270.65 68.69,270.34 			"/>
		</g>
		<path class="st10" d="M81.55,155.85c1.73,4.65,3.17,10.47,4.39,17c1.1-15.04-3.3-30.99-3.3-30.99L81.55,155.85z"/>
		<path class="st2" d="M57.91,124.37l-0.9,4.75c0,0,27.5,3.56,44.61,3.46l-0.59-3.26L57.91,124.37z"/>
		<path class="st29" d="M113.74,83.24c0,0,9.52,29.99,16.02,31.95c6.5,1.96,23.05-22.79,23.05-22.79s14.83-0.14,15.49-1.16
			c0.66-1.01-3.85-11.45-4.94-11.47c-1.08-0.02-13.99,4.86-14.49,5.67c-0.5,0.81-15.31,14.98-16.04,14.58
			c-0.72-0.4-6.32-18.25-6.32-18.25L113.74,83.24z"/>
		<path class="st29" d="M154.7,90.83c0.13-0.03,0.25-0.05,0.36-0.09c-0.06-0.04-0.12-0.07-0.17-0.11
			C154.82,90.71,154.77,90.77,154.7,90.83z"/>
		<g>
			<path class="st2" d="M108.34,79.78l1.16,2.14l5.42,10.01l1.12,2.06l15.19-5.28c0,0-6.31-23.58-8.5-25.99L108.34,79.78z"/>
			<path class="st30" d="M108.34,79.78l1.16,2.14l5.42,10.01l1.12,2.06l15.19-5.28c0,0-6.31-23.58-8.5-25.99L108.34,79.78z"/>
		</g>
		<path class="st10" d="M109.5,81.92l5.42,10.01c3.34-6.58,2.37-15.57,2.37-15.57L109.5,81.92z"/>
		<g>
			<path class="st2" d="M122.72,62.72c0,0-7.99-10.4-22.88-11.1c-14.89-0.7-19.56,0.78-25.01,5.64
				c-7.95,7.1-17.82,68.25-17.82,68.25s20.8,6.43,44.62,4.85c0,0,0.18-16.97,5.55-28.42C117.63,79.69,122.72,62.72,122.72,62.72z"/>
			<path class="st30" d="M57.01,125.5c0,0,20.8,6.43,44.62,4.86c0,0,0.02-2.09,0.28-5.31c0.12-1.52,0.3-3.3,0.56-5.21
				c0.26-1.98,0.6-4.12,1.05-6.29c0.24-1.17,0.51-2.35,0.81-3.53c0.73-2.8,1.66-5.58,2.84-8.08c0.66-1.41,1.3-2.79,1.92-4.16
				c1.08-2.37,2.09-4.69,3.04-6.9c1.99-4.65,3.7-8.9,5.12-12.62c1.02-2.67,1.9-5.06,2.63-7.11c0.81-2.28,1.45-4.16,1.92-5.56
				c0.61-1.85,0.91-2.87,0.91-2.87s-0.54-0.7-1.61-1.76c-2.97-2.95-10.04-8.65-20.78-9.31c-0.16-0.02-0.33-0.03-0.49-0.04
				c-11.34-0.53-16.76,0.2-21.1,2.73c-1.36,0.79-2.61,1.75-3.91,2.91c-0.89,0.79-1.81,2.26-2.72,4.26
				c-1.52,3.27-3.06,7.93-4.54,13.26c-0.22,0.79-0.44,1.61-0.66,2.43c-0.98,3.71-1.94,7.66-2.84,11.66
				c-0.26,1.13-0.51,2.27-0.76,3.41c-0.37,1.74-0.74,3.47-1.1,5.18c-0.9,4.31-1.71,8.49-2.42,12.25c-1.01,5.41-1.81,9.93-2.28,12.73
				C57.19,124.39,57.01,125.5,57.01,125.5z M100.71,52.2c1.05,0.04,2.07,0.12,2.98,0.24c4.04,0.54,10.15,3.74,9.99,5.27
				c-0.16,1.53-2.49,5.4-8.47,4.46c-2.06-0.32-4.06-1.26-5.8-2.42c-3.31-2.18-5.71-5.13-5.95-6.09
				C93.19,52.52,97.07,52.09,100.71,52.2z"/>
			<path class="st2" d="M87.88,72.56c0,0-7.91,19.07-9.49,34.9l21.3,2.72c0,0,9.57-25.76,11.54-33.82
				C111.23,76.36,94.21,74.65,87.88,72.56z"/>
			<polygon class="st30" points="107.07,77.1 110.03,77.4 107.86,79.08 			"/>
		</g>
		<path class="st29" d="M95.47,53.68c1.61,4.6,7.6,6.7,10.74,6.97c4.41,0.37,5.7-3.09,5.7-3.09s-3.58-1.78-3.23-3.8
			c0.21-1.17,0.76-2.32,1.48-3.42c0.37-0.58,0.79-1.15,1.23-1.69l-5.75-12.32C104.35,41.71,100.42,51.96,95.47,53.68z"/>
		<path class="st10" d="M105.4,42.05c-2.74,5.97,1.13,10.13,3.27,11.71c0.21-1.17,0.76-2.32,1.48-3.42L105.4,42.05z"/>
		<g>
			<g>
				<path class="st29" d="M124.68,26.04c0,0,1.84,10.16-3.46,14.23c-5.3,4.08-5.84-14.91-5.84-14.91L124.68,26.04z"/>
				<path class="st20" d="M124.68,26.04c0,0,1.84,10.16-3.46,14.23c-5.3,4.08-5.84-14.91-5.84-14.91L124.68,26.04z"/>
			</g>
			<path class="st29" d="M105.73,48.83c2.73,3.7,7.05,4.57,10.73,3.29c2.37-0.82,4.48-2.54,5.75-4.96c0.17-0.32,0.32-0.65,0.46-0.99
				c2.49-6.31,3.05-21.71-3.68-21.14c-5.51,0.47-10.92-1.24-13.73,3.54c-0.81,1.35-1.28,2.88-1.38,4.46
				C103.28,40.33,102.58,44.6,105.73,48.83z"/>
			<path class="st21" d="M114.61,36.61c-0.12,0.58,0.16,1.11,0.55,1.17c0.39,0.06,0.77-0.39,0.85-0.97
				c0.09-0.59-0.17-1.11-0.55-1.17C115.08,35.59,114.7,36.02,114.61,36.61z"/>
			<path class="st21" d="M121.3,37.56c-0.12,0.58,0.17,1.11,0.55,1.17c0.38,0.05,0.77-0.39,0.85-0.97c0.09-0.59-0.17-1.11-0.55-1.17
				C121.77,36.54,121.38,37,121.3,37.56z"/>
			<path class="st31" d="M119.13,37.55c0.45,1.91,1.16,3.75,2.11,5.46c-0.91,0.47-1.97,0.52-2.92,0.13L119.13,37.55z"/>
			<path class="st21" d="M112.85,34.16c0.13,0.04,0.26,0,0.36-0.09c0.62-0.64,1.5-0.96,2.39-0.85c0.19,0.04,0.37-0.08,0.41-0.27
				c0.04-0.19-0.08-0.37-0.27-0.41c0,0,0,0,0,0c-1.12-0.17-2.24,0.22-3.02,1.03c-0.14,0.13-0.15,0.35-0.02,0.49c0,0,0,0,0.01,0.01
				C112.75,34.1,112.8,34.13,112.85,34.16z"/>
			<path class="st21" d="M124.5,35.66c0.06,0.04,0.13,0.05,0.2,0.04c0.18-0.06,0.29-0.25,0.23-0.43c0,0,0,0,0-0.01
				c-0.32-1.08-1.15-1.94-2.22-2.31c-0.19-0.05-0.38,0.06-0.43,0.24l0,0c-0.05,0.19,0.06,0.37,0.25,0.43l0,0
				c0.84,0.31,1.48,1,1.73,1.85C124.31,35.58,124.4,35.64,124.5,35.66z"/>
			<path class="st26" d="M113.68,43.4c0,0,1.23,2.64,3.73,2.54"/>
			<g>
				<path class="st29" d="M110.49,24.72l0.09,3.26c-1.11,0.46-1.86,1.6-1.49,2.91c0.79,2.8-1.14,6.86-3.38,8.34
					c0,0,0.05-1.18-0.97-0.99c-1.02,0.19-1.31,6.32,0.34,9.41c0,0-3.54-3.25-4.59-9.82c-0.97-6.07-0.8-9.92,0.06-12.83L110.49,24.72
					z"/>
				<path class="st20" d="M110.49,24.72l0.09,3.26c-1.11,0.46-1.86,1.6-1.49,2.91c0.79,2.8-1.14,6.86-3.38,8.34
					c0,0,0.05-1.18-0.97-0.99c-1.02,0.19-1.31,6.32,0.34,9.41c0,0-3.54-3.25-4.59-9.82c-0.97-6.07-0.8-9.92,0.06-12.83L110.49,24.72
					z"/>
			</g>
			<path class="st21" d="M99.92,28.63c0,0,4.16,0.64,10.67-0.65c10.08-2.01,14.36,1.7,14.36,1.7s2.39-2.06,2.1-4.96
				s-4.32-3.4-4.32-3.4s-1.21-3.26-3.89-4.25c-2.67-0.99-5.35,1.48-5.35,1.48s-3.33-3.21-7.21-2.3c-4.76,1.12-4.65,5.66-4.65,5.66
				s-4.55,0.47-4.45,2.8S99.92,28.63,99.92,28.63z"/>
			<ellipse class="st26" cx="115.39" cy="37.1" rx="3.27" ry="3.77"/>
			<path class="st26" d="M126.88,37.66c0,2.08-1.46,3.77-3.27,3.77c-1.8,0-3.27-1.69-3.27-3.77c0-2.08,1.46-3.77,3.27-3.77
				C125.41,33.89,126.88,35.58,126.88,37.66z"/>
			<path class="st26" d="M118.65,37.55c0,0,1.05-0.66,1.69,0.11"/>
			<path class="st26" d="M112.12,37.1l-5.74-0.76c-0.75-0.1-1.51,0.11-2.1,0.57l-0.25,0.19"/>
			<path class="st29" d="M99.86,38.53c0.57,1.76,1.82,3.22,3.47,4.06c2.19,1.1,3.75-0.75,3.54-3.06c-0.21-2.05-1.58-5.16-3.97-5.27
				C100.5,34.14,99.19,36.36,99.86,38.53z"/>
		</g>
		<path class="st10" d="M63.32,92.27c9.43-3.92,16.9-20.11,16.9-20.11l-5.36-3.24l-7.28,5.85c-0.22,0.79-0.44,1.61-0.66,2.43
			c-0.98,3.71-1.94,7.66-2.84,11.66C63.82,90,63.57,91.14,63.32,92.27z"/>
		<polygon class="st2" points="115.31,93.99 131.59,88.01 132.05,89.4 115.77,95.2 		"/>
		<g>
			
				<rect x="23.32" y="131.22" transform="matrix(0.9877 0.1567 -0.1567 0.9877 23.4487 -5.5931)" class="st2" width="47.78" height="29.47"/>
			<g>
				<polyline class="st32" points="42.62,138.74 33.04,143.71 40.62,151.4 				"/>
				<polyline class="st32" points="51.79,153.18 61.37,148.21 53.8,140.52 				"/>
				<line class="st32" x1="43.96" y1="151.93" x2="50.46" y2="139.99"/>
			</g>
		</g>
		<path class="st29" d="M69.21,59.86c0,0-17.78,17.85-20.21,21.33c-2.43,3.47-7.06,41.94-7.06,41.94s-0.98,0.34-1.06,1.17
			c-0.08,0.83-0.16,11.63,0,12.13c0.16,0.5,8.35,5.55,9.55,4.35c1.2-1.2,2.89-13.43,2.89-13.43l-4.31-4.22
			c0,0,5.02-28.33,8.16-32.92c3.14-4.58,16.1-14.41,16.1-14.41L69.21,59.86z"/>
		<g>
			<path class="st2" d="M82.88,52.67c2.59,5.49,0.62,17.05-4.15,21.13c-7.23,6.17-15.99,11.47-15.99,11.47L54,73.85
				c0,0,9.28-9.06,14.9-14.28C75.73,53.22,82.88,52.67,82.88,52.67z"/>
			<path class="st30" d="M82.88,52.67c2.59,5.49,0.62,17.05-4.15,21.13c-7.23,6.17-15.99,11.47-15.99,11.47L54,73.85
				c0,0,9.28-9.06,14.9-14.28C75.73,53.22,82.88,52.67,82.88,52.67z"/>
		</g>
		<polygon class="st2" points="54,73.11 52.92,74.58 62.03,86.49 63.32,85.57 		"/>
	</g>
</g>
</svg>
