<?xml version="1.0" encoding="utf-8"?>
<!-- Generator: Adobe Illustrator 19.0.0, SVG Export Plug-In . SVG Version: 6.00 Build 0)  -->
<svg version="1.1" id="Layer_1" xmlns="http://www.w3.org/2000/svg" xmlns:xlink="http://www.w3.org/1999/xlink" x="0px" y="0px"
	 viewBox="0 0 323 216.7" style="enable-background:new 0 0 323 216.7;" xml:space="preserve">
<style type="text/css">
	.st0{fill:#F2F2F2;}
	.st1{fill:#CCCBCB;}
	.st2{fill:#E5E5E4;}
	.st3{fill:#A6A5A5;}
	.st4{enable-background:new    ;}
	.st5{fill:#5A5A5A;}
	.st6{fill:#BFBEBE;}
	.st7{fill:#333333;}
	.st8{fill:#D8D8D7;}
	.st9{fill:#8AC0E8;}
	.st10{fill:#5152A2;}
	.st11{fill:#F9B48B;}
	.st12{fill:#767DBB;}
	.st13{fill:#2E3087;}
	.st14{fill:#FFE4CB;}
	.st15{fill:#9391C7;}
	.st16{fill:#434343;}
	.st17{fill:#F9AA67;}
	.st18{fill:#733218;}
	.st19{fill:#FFD067;}
	.st20{fill:#FFFFFF;}
	.st21{fill:#8B3D1E;}
	.st22{fill:#5068AA;}
	.st23{fill:#6B82C0;}
	.st24{fill:#294489;}
	.st25{fill:#4D4E4E;}
	.st26{fill:#737374;}
	.st27{fill:#1F2125;}
</style>
<g id="XMLID_2_">
	<path id="XMLID_253_" class="st0" d="M195.8,184.4c-5.5,3.2-14.4,3.1-19.9,0c-5.5-3.2-5.5-8.3-0.1-11.5c5.5-3.2,14.4-3.1,19.9,0
		C201.3,176.1,201.3,181.2,195.8,184.4z"/>
	<g id="XMLID_228_">
		<path id="XMLID_252_" class="st0" d="M227.3,158.1l-33.6-19.4l5.5-3.2c0.9-0.5,1-1.3,0.2-1.7l-31.3-18c-0.8-0.4-2.1-0.4-2.9,0.1
			l-5.4,3.1l-31.9-18.4c-0.4-0.3-1.2-0.2-1.7,0.1l-1.1,0.6c-0.5,0.3-0.6,0.7-0.1,1l31.9,18.4l-9.5,5.5c-0.9,0.5-1,1.3-0.2,1.7
			l31.3,18c0.8,0.4,2.1,0.4,2.9-0.1l9.5-5.5l33.6,19.4c0.4,0.3,1.2,0.2,1.7-0.1l1.1-0.6C227.7,158.8,227.7,158.3,227.3,158.1z"/>
		<g id="XMLID_248_">
			<path id="XMLID_251_" class="st1" d="M195.8,130.7l-0.3,1.5l-0.8,1.5L193,135l-1.3,0.9l-5.7,3.2l-7.3,4.6l-28-16.2l0,0
				c-0.1-0.1-0.1-0.1-0.1-0.3c0-0.3,0.2-0.7,0.5-0.8l13.5-7.8l0.6-0.3c0.7-0.4,1.4-1.2,1.9-2.1c0.4-0.9,0.5-1.8,0.3-2.5L159.5,91
				l0.9-0.9l28,16.2l-0.1,2.1l3.2,8.7l2.5,7.4l1.6,4.3L195.8,130.7z"/>
			<path id="XMLID_250_" class="st2" d="M193,135l-1.3,0.9l-5.7,3.2l-7.3,4.6l-28-16.2l0,0c-0.1-0.1-0.1-0.1-0.1-0.3
				c0-0.3,0.2-0.7,0.5-0.8l13.5-7.8L193,135z"/>
			<path id="XMLID_249_" class="st3" d="M193.1,135.5l-14.1,8.2c-0.3,0.2-0.5,0-0.5-0.3l0,0c0-0.3,0.2-0.7,0.5-0.8l14.1-8.2
				c0.7-0.4,1.4-1.2,1.9-2.1c0.4-0.9,0.5-1.8,0.3-2.5l-7.8-22.6l0.9-0.9l7.8,22.6c0.3,0.9,0.2,2.2-0.4,3.5
				C195.2,133.7,194.2,134.9,193.1,135.5z"/>
		</g>
		<g id="XMLID_229_">
			<g id="XMLID_242_">
				<g id="XMLID_243_" class="st4">
					<path id="XMLID_247_" class="st5" d="M225,62.9L129,7.5c-0.6-0.4-1.2-0.4-1.6-0.2l-1.9,1.1c0.4-0.2,1-0.2,1.6,0.2L223,64
						c1.2,0.7,2.2,2.4,2.2,3.8l-0.2,73.6c0,0.7-0.2,1.2-0.6,1.4l1.9-1.1c0.4-0.2,0.6-0.7,0.6-1.4l0.2-73.6
						C227.2,65.3,226.2,63.6,225,62.9z"/>
					<path id="XMLID_246_" class="st6" d="M227,127.4l0,12.9c0,0.7-0.2,1.2-0.6,1.4l-1.9,1.1c0.4-0.2,0.6-0.7,0.6-1.4l0-12.9
						L227,127.4z"/>
					<g id="XMLID_244_">
						<path id="XMLID_245_" class="st7" d="M225.2,67.8l-0.2,73.6c0,1.4-1,1.9-2.2,1.3l-95.9-55.4c-1.2-0.7-2.2-2.4-2.2-3.8
							l0.2-73.6c0-1.4,1-1.9,2.2-1.2L223,64C224.3,64.7,225.2,66.4,225.2,67.8z"/>
					</g>
				</g>
			</g>
			<path id="XMLID_241_" class="st8" d="M225.1,128.5l0,12.9c0,1.4-1,1.9-2.2,1.3l-95.9-55.4c-1.2-0.7-2.2-2.4-2.2-3.8l0-12.9
				L225.1,128.5z"/>
			<polygon id="XMLID_240_" class="st9" points="222.6,122.8 128.2,68.2 128.2,13.5 222.6,68.2 			"/>
			<g id="XMLID_230_">
				<polygon id="XMLID_239_" class="st3" points="158.7,31.2 158.7,41.8 132.8,26.8 132.8,16.2 				"/>
				<polygon id="XMLID_238_" class="st3" points="189.6,49.1 189.6,59.6 163.7,44.7 163.7,34.1 				"/>
				<polygon id="XMLID_237_" class="st3" points="220.5,67 220.5,77.4 194.6,62.5 194.6,52 				"/>
				<polygon id="XMLID_236_" class="st10" points="158.7,76 132.8,61.1 132.8,31.4 158.7,46.4 				"/>
				<polygon id="XMLID_235_" class="st3" points="189.6,93.9 163.7,78.9 163.7,49.3 189.6,64.2 				"/>
				<polygon id="XMLID_234_" class="st3" points="220.5,111.7 194.6,96.8 194.6,67.1 220.5,82 				"/>
				<polygon id="XMLID_233_" class="st3" points="158.7,80.6 158.7,85.8 132.8,70.8 132.8,65.7 				"/>
				<polygon id="XMLID_232_" class="st3" points="189.6,98.5 189.6,103.7 163.7,88.7 163.7,83.5 				"/>
				<polygon id="XMLID_231_" class="st3" points="220.5,116.3 220.5,121.6 194.6,106.6 194.6,101.4 				"/>
			</g>
		</g>
	</g>
	<g id="XMLID_151_">
		<g id="XMLID_418_">
			<path id="XMLID_442_" class="st0" d="M132.5,148.5c-5.7,3.3-15.1,3.3-20.9,0c-5.8-3.3-5.8-8.7-0.1-12c5.7-3.3,15.1-3.3,20.9,0
				C138.2,139.8,138.2,145.2,132.5,148.5z"/>
			<path id="XMLID_441_" class="st11" d="M144.5,65.6c-0.2-0.1-0.4-0.1-0.6,0c-0.8,0.1-1.7,0.1-2.5,0.1c-0.1,0-0.2,0-0.3,0
				c-0.1,0.1-0.2,0.2-0.3,0.3c-0.4,0.6-0.8,1.1-1.4,1.5c-0.5,0.4-1.1,0.7-1.6,1c-0.6,0.3-1.1,0.6-1.7,0.9c-2.9,1.3-5.9,2.2-8.8,3.3
				c-0.2,0.1-0.4,0.2-0.6,0.3c-0.1,0.1-0.2,0.2-0.3,0.4c-0.2,0.4-0.4,0.7-0.4,1.2c-0.1,0.7,0.2,1.5,0.7,1.9c0,0,0.1,0.1,0.2,0.1
				c0.1,0,0.2,0,0.2,0c2.9-1.1,5.7-2.3,8.5-3.6c1.4-0.6,2.8-1.2,4.2-1.9c0.7,0,1.4-0.1,2-0.4c0.3-0.2,0.5-0.4,0.8-0.5
				c0.1-0.1,0.3-0.1,0.4-0.2c0.1-0.1,0.2-0.3,0.3-0.4c0.5-0.8,0.9-1.8,1.3-2.7c0.1-0.1,0.1-0.3,0.1-0.4
				C144.9,66,144.8,65.7,144.5,65.6z"/>
			<g id="XMLID_431_">
				<g id="XMLID_434_">
					<g id="XMLID_435_" class="st4">
						<path id="XMLID_440_" class="st12" d="M138.4,37.4c-0.4-0.2-0.9-0.2-1.5,0.1c-1.2,0.7-2.1,2.3-2.1,3.7c0,0.7,0.2,1.1,0.6,1.4
							l17.2,10c-0.4-0.2-0.6-0.7-0.6-1.4c0-1.4,1-3,2.1-3.7c0.6-0.3,1.1-0.4,1.5-0.1L138.4,37.4z"/>
						<g id="XMLID_438_">
							<path id="XMLID_439_" class="st13" d="M154.1,47.5c1.2-0.7,2.1-0.1,2.1,1.2s-1,3-2.1,3.7c-1.2,0.7-2.1,0.1-2.2-1.2
								C151.9,49.8,152.9,48.2,154.1,47.5z"/>
						</g>
						<g id="XMLID_436_">
							<path id="XMLID_437_" class="st9" d="M154.1,48.5c0.7-0.4,1.3-0.1,1.3,0.7c0,0.8-0.6,1.8-1.3,2.2c-0.7,0.4-1.3,0.1-1.3-0.7
								C152.8,49.9,153.4,48.9,154.1,48.5z"/>
						</g>
					</g>
				</g>
				<g id="XMLID_432_">
					<path id="XMLID_433_" class="st0" d="M141.9,72.4l-0.9-0.2l2.9-13.6c0.2-1,1.1-1.7,2.2-1.7l6.5,0.1c0.3,0,0.5-0.1,0.7-0.4
						l2.9-4.7c0-0.1,0-0.1,0-0.2c0,0,0-0.1-0.1-0.1l-2.4-1.4l0.5-0.8l2.4,1.4c0.3,0.2,0.5,0.4,0.5,0.7c0.1,0.3,0,0.6-0.1,0.9
						l-2.9,4.7c-0.3,0.5-0.9,0.8-1.5,0.8l-6.5-0.1c-0.5,0-1.1,0.4-1.2,1L141.9,72.4z"/>
				</g>
			</g>
			<path id="XMLID_430_" class="st14" d="M143.1,66.8c-0.3,0.1-0.5,0.2-0.8,0.3c-0.1,0-0.2,0.1-0.3,0.2c-0.1,0.1-0.1,0.2,0,0.3
				c-0.3,0-0.6,0.2-0.6,0.6c0,0.2,0.1,0.3,0,0.5c0,0.1-0.1,0.1-0.1,0.2c-0.1,0.2,0,0.4,0.1,0.5s0.3,0.2,0.5,0.2
				c0.3,0.1,0.5,0.1,0.8,0.2c0.3,0,0.7,0.1,1-0.1c0.3-0.1,0.5-0.5,0.5-0.8c0.3,0,0.6-0.1,0.7-0.3s0.2-0.5,0.1-0.8c0,0,0-0.1,0-0.1
				c0-0.1,0.1-0.1,0.2-0.2c0.3-0.2,0.4-0.5,0.3-0.8c-0.1-0.2-0.2-0.3-0.2-0.5c0-0.3,0-0.5-0.3-0.6c-0.2-0.1-0.4-0.1-0.5,0
				c-0.4,0.2-0.5,0.8-0.3,1.2C143.7,66.6,143.4,66.7,143.1,66.8z"/>
			<path id="XMLID_429_" class="st10" d="M109.9,141.8c0,0.7,0.1,1.4,0.5,1.9c0.4,0.6,1.2,0.7,1.9,0.5c0.8-0.3,1.4-1.1,2.1-1.7
				c0.4-0.3,0.8-0.6,1.2-0.8c0.5-0.2,0.9-0.1,1.4-0.1c1,0,2.1-0.3,3-0.7c0.6-0.3,1.3-0.7,1.7-1.3c0.5-0.8,0.7-2.1-0.4-2.3
				c-0.3-0.1-0.6-0.1-1-0.1c-2.2-0.1-4.5-0.1-6.7,0.3c-0.4,0.1-0.8,0.2-1.2,0.4c-0.1,0.1-0.3,0.3-0.5,0.2c-0.1,0-0.4-0.3-0.3-0.4
				c-0.6,1-1.3,1.9-1.5,3.1C109.9,141.1,109.9,141.5,109.9,141.8z"/>
			<path id="XMLID_428_" class="st7" d="M123.7,89.8c-0.1-0.6-0.2-1.2-0.5-1.7c-0.3-0.5-0.7-0.9-1.1-1.3c-1-0.9-2.6-1.8-3.7-0.6
				c-0.4,0.4-0.6,0.9-0.9,1.4c-0.5,0.8-1.1,1.6-1.5,2.4c-0.6,1-1.1,1.9-1.5,3c-0.9,2.3-1.4,4.8-0.7,7.2c0.2,0.6,0.4,1.2,0.5,1.8
				c0.1,0.6,0,1.2-0.1,1.8c-0.1,0.5-0.2,1-0.2,1.6c-0.5,3.3-1.2,6.6-1.5,10c-0.1,1.5-0.5,2.9-1,4.3c-0.5,1.4-0.8,2.8-1.1,4.2
				c-0.2,0.9-0.3,1.9-0.3,2.9c-0.1,2.4,0.4,4.8,0.7,7.1c0.2,1.2,0.3,2.4,0.2,3.6c0,0.6-0.1,1.1-0.1,1.7c0,0.5,0.4,0.8,0.9,0.9
				c0.4,0.1,0.9,0.1,1.3,0c0.6-0.1,1.1-0.3,1.7-0.5c0.5-0.2,1-0.5,1.1-1c0.1-0.3,0.1-0.6,0.1-0.9c-0.1-4.2-0.1-8.5,0.9-12.7
				c0.6-2.8,1.7-5.4,2.8-8.1c1-2.5,2.1-5.2,2.6-7.9c0.1-0.5,0-0.9,0.2-1.3c0.2-0.7,0.5-1.3,0.7-2c0.4-1.2,0.9-2.5,1.1-3.8
				C124.8,97.9,124.3,93.8,123.7,89.8z"/>
			<path id="XMLID_427_" class="st14" d="M141.8,65.3c0.5-0.2,1-0.1,1.5-0.3c0.2-0.1,0.4-0.3,0.7-0.3c0,0,0.1,0,0.1,0
				c0.1,0,0.1,0.1,0.2,0.2c0.1,0.2,0,0.5-0.2,0.7c-0.2,0.2-0.5,0.2-0.7,0.3c-0.3,0.1-0.5,0.1-0.7,0.3c-0.2,0.2-0.3,0.5-0.5,0.7
				c-0.2,0.3-0.4,0.5-0.7,0.5c-0.2,0-0.4-0.2-0.5-0.4c-0.2-0.4,0-0.6,0.2-0.9C141.2,65.8,141.4,65.5,141.8,65.3z"/>
			<path id="XMLID_426_" class="st15" d="M120.8,143.4c0,0.2-0.1,0.4-0.1,0.6c0,0.5-0.1,1.2,0.1,1.7c0.3,0.5,0.9,0.8,1.5,0.9
				c0.3,0.1,0.6,0.1,0.8,0c0.4-0.1,0.7-0.2,1.1-0.4c0.4-0.2,0.8-0.3,1.3-0.3c0.7-0.1,1.4,0.1,2,0.2c0.6,0.1,1.3,0.1,1.9,0
				c0.9,0,1.8-0.1,2.7-0.4c0.9-0.3,1.6-0.9,2.1-1.7c0.2-0.3,0.3-0.6,0.2-0.9c0-0.6-0.5-1.2-1-1.5c-0.6-0.3-1.2-0.4-1.8-0.6
				c-1.4-0.3-2.8-0.6-4.2-0.8c-1.4-0.2-2.8-0.2-4.2,0.1c-0.2,0.1-0.6,0.3-0.8,0.3c-0.1,0-0.5-0.3-0.5-0.5c-0.5,0.5-0.7,1.2-0.9,1.9
				C121,142.6,120.9,143,120.8,143.4z"/>
			<path id="XMLID_425_" class="st16" d="M132.1,100.8c-0.3-2.6-0.8-5.5-2.1-7.8c-0.1-0.2-0.3-0.5-0.5-0.7c-0.1-0.1-0.1-0.1-0.2-0.1
				c-0.3-0.1-0.4,0.1-0.7,0.2c-0.4,0.2-0.8,0.2-1.2,0.2c-0.9,0-1.9-0.2-2.8-0.5c-1.1-0.5-2-1.1-3-1.8c-0.5-0.3-1.1-0.6-1.5-1
				c-0.4-0.3-0.6-0.6-0.9-1c0-0.1-0.1-0.1-0.2-0.1c-0.1,0-0.2,0.1-0.3,0.2c-1.2,1.9-2,4-2.5,6.2c-0.1,0.3-0.2,0.7-0.2,1
				c-0.3,1.7-0.5,3.4,0.4,5c0.3,0.6,0.8,1.2,1.3,1.7c0.4,0.5,1,1.1,1.4,1.8c1,2,1,4.6,1.3,6.8c0.3,2.1,0.5,4.2,0.7,6.3
				c0.2,1.9,0.3,4,0,5.9c-0.2,1.1-0.6,2.1-0.8,3.1c-0.2,1-0.1,2-0.1,3c0,0.9,0.1,1.9,0.3,2.8c0.4,2.9,1,5.8,1,8.7
				c0,0.2,0,0.6,0.1,0.8c0.1,0.2,0.4,0.3,0.7,0.3c0.6,0.1,1.2,0,1.7-0.2c0.8-0.2,1.5-0.6,2.2-1.1c0.6-0.4,0.6-0.9,0.5-1.6
				c-0.1-0.8-0.1-1.5-0.1-2.3c-0.1-1.6,0-3.1,0.1-4.7c0.3-2.8,0.5-5.8,1.3-8.4c1.2-3.7,2.4-7.4,3.2-11.1
				C131.9,108.8,132.6,104.6,132.1,100.8z"/>
			<path id="XMLID_424_" class="st17" d="M109.2,68.6c-0.6,1.7-0.4,3.6-0.1,5.4c0.8,3.8,2.5,7.5,4.9,10.6c0.7,0.9,1.5,1.8,1.7,2.9
				c0.2,1.1-0.1,2.2-0.5,3.2c-0.2,0.6-0.4,1.2-0.6,1.8c-0.1,0.2-0.1,0.5-0.1,0.7c0,0.2,0.1,0.4,0.2,0.5c0.9,1.4,2.3,2.4,3.9,2.9
				c1.6,0.5,3.2,0.6,4.9,0.6c1.5,0,3.1-0.1,4.6-0.5c0.9-0.2,1.9-0.4,2.6-1c0.4-0.3,0.6-0.6,0.5-1.1c-0.2-0.7-0.5-1.4-0.8-2.1
				c-1-3-1.7-6.1-2.1-9.2c-0.2-1.2-0.3-2.5-0.4-3.7c-0.1-0.7-0.1-1.3-0.1-2c0-0.5,0.1-1,0-1.5c-0.3-1-1.3-1.6-2.2-2.2
				c-2.4-1.4-4.8-3-7.1-4.6c-1.6-1.2-3.3-2.2-5.2-2.4C111.6,66.7,109.8,66.7,109.2,68.6z"/>
			<path id="XMLID_423_" class="st14" d="M110.6,67.6c0,0,0,0.1-0.1,0.1c-0.2,0.4,0.1,0.5,0.4,0.8c0.3,0.3,0.7,0.5,1,0.7
				c0.7,0.4,1.5,0.7,2.3,0.9c1.4,0.3,2.8,0.2,4.1-0.2c-0.4-2.2-0.9-4.4-0.4-6.6c-1.3-0.1-2.5-0.6-3.7-1.2c-0.6-0.3-1.2-0.6-1.8-0.8
				c-0.3-0.1-1.5-0.5-1.5,0c0,0.9,0.3,1.7,0.3,2.5c0,0.6,0,1.3-0.1,1.9c-0.1,0.5-0.1,1-0.4,1.5C110.8,67.4,110.7,67.5,110.6,67.6z"
				/>
			<path id="XMLID_422_" class="st14" d="M120.5,56c0.1,0.2,0.2,0.4,0.2,0.7c0,0.2-0.1,0.5-0.1,0.7c0,0.4,0.3,0.7,0.5,1
				c0.4,0.4,0.8,0.9,1.1,1.3c0,0.1,0.1,0.1,0.1,0.2c0.1,0.2-0.2,0.4-0.4,0.5c-0.5,0.4-0.7,1.1-0.7,1.8c0,0.7,0.1,1.4-0.2,2
				c-0.4,1-1.6,1.4-2.7,1.6c-0.2,0.1-0.5,0.1-0.7,0.1c-0.1,0-0.3-0.1-0.4-0.1c-0.7-0.2-1.4-0.5-1.8-1.1c-0.2-0.3-0.3-0.6-0.5-0.7
				c-0.2-0.1-0.3-0.1-0.5-0.1c-1.4-0.1-2.8,0.5-4.1,0.1c-1.2-0.4-2-1.5-2.5-2.6c-0.5-1.2-0.8-2.5-0.6-3.8c0.1-0.7,0.4-1.5,0.8-2.1
				c1.1-1.7,2.9-2.9,4.9-3.2c1.3-0.2,2.6,0,3.8,0.5c0.8,0.4,1.8,0.9,2.5,1.5C119.7,54.8,120.1,55.4,120.5,56z"/>
			<path id="XMLID_421_" class="st18" d="M118.7,58.2c-0.1,0.3-0.2,0.5-0.3,0.8c-0.4,0.9-0.8,1.4-1.8,1.3c-0.5,0-1,0.2-1.3,0.7
				c-0.3,0.4-0.3,1-0.2,1.5c0,0.2,0.1,0.4,0.2,0.5c0.2,0.2,0.4,0.4,0.6,0.5c0.6,0.4,1.1,0.9,1.4,1.6c0.5,1,0.4,2.1,0.3,3.2
				c-0.4,0.2-0.9,0.4-1.4,0.5c-3.1,0.6-6.4,0-9-1.8c-0.1-0.1-0.2-0.2-0.3-0.3c-0.1-0.1-0.1-0.3-0.1-0.5c-0.1-0.6-0.2-1.2-0.2-1.8
				c-0.1-1-0.2-1.9-0.2-2.9c0-0.8,0-1.7,0.1-2.5c0.3-1.6,1-3.2,2.1-4.4c0.4-0.5,0.8-0.9,1.3-1.2c2.1-1.5,5-1.5,7.3-0.5
				c1,0.4,1.5,1.4,1.6,2.4C119,56.1,118.9,57.2,118.7,58.2z"/>
			<path id="XMLID_420_" class="st14" d="M146.2,59.4c0-0.1-0.1-0.1-0.1-0.2c0-0.1,0-0.1,0-0.2c0-0.3,0-0.6-0.1-0.9
				c-0.1-0.2-0.4-0.1-0.6,0c-0.1,0.1-0.2,0.2-0.2,0.3c-0.1,0.1-0.2,0.2-0.3,0.3c-0.1,0.1-0.3,0.1-0.4,0.1c-0.6-0.1,0.1-1.2,0.2-1.4
				c0,0,0,0,0,0c0,0,0,0,0,0c-0.1-0.1-0.2-0.1-0.3-0.1c-0.2,0.1-0.5,0.2-0.7,0.3c-0.4,0.3-0.8,0.6-1.2,0.9c-0.1,0.1-0.2,0.2-0.3,0.3
				c-0.1,0.1-0.2,0.3-0.2,0.4c-0.1,0.2-0.2,0.5-0.3,0.7c-0.2,0.4-0.4,0.8-0.5,1.2c-0.1,0.4-4.1,8-5.1,9.6c-0.3,0.5-0.6,1.1-0.9,1.6
				c-0.3,0.4-0.8,0.3-1.2,0.4c-0.8,0.1-1.6,0.1-2.4,0.1c-1.6,0-3.2-0.1-4.8-0.4c-1.8-0.4-3.6-1-5.5-0.9c-0.9,0-2,0.5-2.4,1.4
				c-0.5,1.1,0.1,2.4,0.6,3.3c0.5,0.8,1.1,1.5,1.8,1.9c1.3,0.8,2.8,0.9,4.3,1c0.6,0,1.2,0.1,1.8,0.1c0.6,0,1.3-0.2,1.9-0.4
				c1.3-0.3,2.5-0.6,3.8-0.9c1-0.3,1.9-0.6,2.8-0.9c0.5-0.2,0.9-0.3,1.4-0.5c0.5-0.2,0.7-0.6,1-1c1.1-1.4,1.8-2.9,2.4-4.5
				c0.3-0.8,2-6.2,2.2-6.9c0.2-0.2,0.3-0.4,0.5-0.5c0.3-0.2,0.6-0.2,0.8-0.3c0.3-0.1,0.6-0.2,0.9-0.4c0.3-0.1,0.6-0.3,0.6-0.6
				c0-0.1,0-0.2,0.1-0.3c0-0.1,0.1-0.1,0.2-0.2c0.1-0.1,0.3-0.3,0.3-0.5c0-0.1,0-0.3,0-0.4c0-0.1,0.1-0.2,0.1-0.2
				C146.5,60.1,146.4,59.7,146.2,59.4z"/>
			<path id="XMLID_419_" class="st19" d="M121.2,71.1c-0.9,0-1.7,0.1-2.3,0.8c-0.5,0.6-0.7,1.3-0.8,2.1c-0.1,1.8,0.9,3.7,2.5,4.6
				c1.3,0.7,2.9,0.8,4.3,0.9c0.8,0,1.7,0,2.5,0c0.3,0,0.8,0.1,1.1-0.1c0.9-0.4,1.3-1.9,1.6-2.8c0.4-1.3,0.5-3.2-0.6-4.2
				c-0.5-0.4-1.4-0.5-2-0.6c-1.4-0.3-2.7-0.5-4.1-0.6C122.7,71.2,121.9,71.1,121.2,71.1z"/>
		</g>
	</g>
	<g id="XMLID_143_">
		<g id="XMLID_144_" class="st4">
			<g id="XMLID_149_">
				<polygon id="XMLID_150_" class="st6" points="217,86.4 218.7,85.2 220.5,111.8 218.8,112.9 				"/>
			</g>
			<g id="XMLID_147_">
				<polygon id="XMLID_148_" class="st20" points="192.8,72.5 194.6,71.3 218.7,85.2 217,86.4 				"/>
			</g>
			<g id="XMLID_145_">
				<polygon id="XMLID_146_" class="st8" points="217,86.4 218.8,112.9 194.6,99 192.8,72.5 				"/>
			</g>
		</g>
	</g>
	<g id="XMLID_118_">
		<g id="XMLID_314_">
			<path id="XMLID_325_" class="st11" d="M205.5,89.1c-0.1-0.2-0.4-0.3-0.6-0.2c-0.4,0.1-0.6,0.4-0.9,0.7c-0.2,0.3-0.4,0.6-0.7,0.9
				c-0.1,0.1-0.2,0.1-0.3,0.2c-0.1,0-0.3-0.1-0.3-0.2c-0.1-0.1-0.1-0.3,0-0.4c0-0.4,0.2-0.7,0.3-1c0.4-1.2,0.8-2.4,1-3.6
				c0-0.2,0.1-0.5-0.1-0.7c0,0-0.1-0.1-0.1-0.1c-0.1,0-0.1,0-0.1,0.1c-0.5,0.6-0.6,1.5-1.2,1.9c0.1-0.9,0.2-1.7,0.3-2.6
				c0-0.1,0-0.3,0-0.4c-0.1-0.2-0.2-0.3-0.4-0.2c-0.2,0-0.3,0.2-0.4,0.3c-0.2-0.2-0.5-0.1-0.6,0.1c-0.2,0.2-0.2,0.4-0.3,0.6
				c0,0.2-0.1,0.5-0.2,0.6c-0.1-0.1-0.4-0.1-0.5,0.1c-0.1,0.1-0.2,0.3-0.2,0.5c-0.3,1.1-0.2,2.2-0.5,3.3c-0.3,1.5-1.3,2.8-2.5,3.7
				c-0.8,0.6-1.7,1.2-2.7,1.6c-1.8,0.9-3.7,1.7-5.4,2.7c-0.8,0.5-1.5,1.2-2.3,1.7c-0.6,0.4-1.5,0.8-2.2,0.9c-0.9,0.1-1.9,0-2.9,0.1
				c0,0-0.1,0-0.1,0c0,0,0,0.1-0.1,0.1c-0.1,0.7,0.1,1.5,0.5,2.1c0.2,0.4,0.5,0.6,0.5,1c0.1,0.5,0,0.9-0.1,1.4c0,0,0,0.1,0,0.1
				c0,0,0.1,0,0.1,0c0.2,0,0.3-0.1,0.5-0.1c1.3-0.2,2.7-0.5,4-0.8c0.7-0.2,1.3-0.4,2-0.7c1.8-0.8,3.4-2.3,4.9-3.5
				c1.7-1.4,3.4-2.9,5.1-4.5c1-0.9,2.3-1.1,3.4-1.9c0.7-0.5,1.2-1.1,1.8-1.8c0.4-0.5,0.8-1,1.2-1.6
				C205.5,89.4,205.6,89.3,205.5,89.1z"/>
			<path id="XMLID_324_" class="st10" d="M182,173.7c-0.8,0.2-1.5,0.5-2.3,0.9c-0.4,0.2-0.7,0.3-1.1,0.5c-0.3,0.2-0.5,0.3-0.8,0
				c-0.1-0.1-0.5-0.7-0.3-0.8c-0.2,0.1-0.4,0.3-0.4,0.6c-0.3,0.9-0.5,1.8-0.5,2.8c0,0.7,0,1.8,0.7,2.3c0.5,0.4,1.2,0.5,1.9,0.4
				c1-0.3,1.7-1.2,2.6-1.8c0.8-0.6,1.9-0.8,2.8-1.1c1-0.3,2-0.7,2.7-1.4c0.2-0.2,0.4-0.5,0.4-0.7c0.1-0.3,0-0.6-0.1-0.8
				c-0.1-0.2-0.4-0.3-0.6-0.4c-0.8-0.3-1.7-0.4-2.5-0.5c-0.4,0-0.8-0.1-1.2,0C182.8,173.5,182.4,173.6,182,173.7z"/>
			<path id="XMLID_323_" class="st7" d="M185,131.7c-0.3-1.3-0.9-2.6-1.9-3.6c-1-1-2.4-1.6-3.8-1.4c-0.6,0.1-1.1,0.6-1.6,0.6
				c-0.4,0-1-0.8-0.8-1.1c-0.8,1.5-1.2,3.1-1.2,4.7c0,1.6,0.5,3.3,0.9,4.9c0.2,0.8,0.3,1.6,0.4,2.4c0.3,2.5,0.5,5,0.6,7.6
				c0.1,2.4,0.2,4.9-0.1,7.3c-0.1,1.1-0.6,2.2-0.9,3.3c-0.3,0.8-0.6,1.6-0.7,2.4c-0.2,0.9-0.2,1.8-0.2,2.7c0,1.6,0.2,3.3,0.3,4.9
				c0.3,2.8,0.6,5.7,0.8,8.5c0,0.2,0,0.4,0.1,0.5c0.2,0.3,0.6,0.5,1,0.6c1.5,0.2,2.9-0.4,4.2-1.1c0.1,0,0.2-0.1,0.3-0.2
				c0.1-0.1,0.1-0.3,0.1-0.5c-0.4-2.9-0.7-5.8-0.7-8.8c0-1.3,0-2.6,0.3-3.9c0.3-1.3,0.7-2.5,1.1-3.8c0.3-1,0.6-2.2,0.6-3.2
				c0,0,0.1,0,0.1,0c0.1-0.1,0.1-0.2,0.1-0.3c0.3-4.1,0.7-8.2,1-12.3c0.2-2,0.3-4,0.4-5.9C185.3,134.4,185.3,133,185,131.7z"/>
			<path id="XMLID_322_" class="st15" d="M196.3,178.9c0.1-0.3,0.1-0.6-0.2-0.9c-0.3-0.3-0.8-0.4-1.3-0.5c-2.1-0.3-4.1-0.1-6.2,0
				c-0.7,0-1.4,0.1-2.1,0.3c-0.3,0.1-0.7,0.2-0.9,0.4c-0.2,0.1-0.4,0.2-0.5-0.1c-0.2,0.1-0.2,0.2-0.3,0.4c-0.3,0.6-0.6,1.2-0.7,1.9
				c-0.2,0.7-0.2,1.6,0.3,2.3c0.4,0.6,1.1,1,1.8,1c0.4,0,0.8-0.1,1.1-0.3c0.4-0.3,0.7-0.6,1.2-0.8c0.5-0.2,1.1-0.3,1.6-0.3
				c1.1-0.1,2.3-0.1,3.4-0.5c0.8-0.3,1.5-0.9,2.1-1.6C195.8,179.7,196.1,179.3,196.3,178.9z"/>
			<path id="XMLID_321_" class="st16" d="M190.4,163.5c0-2.5,0-5-0.2-7.5c0.6-5.3,2.9-10.4,3.1-15.8c0.1-3.1-0.6-6.1-1.3-9.1
				c-0.3-1.1-0.6-2.3-1.2-3.2c-0.4,1.1-1.7,1.8-2.8,1.8c-1.2,0-2.3-0.6-3.3-1.2c-1-0.6-2-1.3-3.2-1.6c-0.5-0.1-1-0.2-1.5-0.1
				c-0.4,0.1-0.6,0.4-1,0.1c-0.2-0.1-0.5-0.8-0.6-0.8c-0.1,0-0.2,0.1-0.2,0.3c-0.6,2.5-0.6,5.1,0.1,7.5c0.2,0.7,0.4,1.4,0.7,2.1
				c0.2,0.5,0.5,1,0.7,1.4c0.7,1,1.8,1.9,2.7,2.7c0.2,0.2,0.4,0.3,0.5,0.6c0.2,0.6,0.2,3.6,0.3,4.4c0.1,1.6,0.2,3.3,0.2,5
				c0,2.6-0.2,5.3,0.2,8c0.2,1.5,0,3.2,0,4.8c0,3.4,0.2,6.7,0.5,10.1c0.2,1.9,0.4,3.7,0.7,5.6c0.1,1,2.1,1.1,2.9,1.1
				c0.9-0.1,1.8-0.5,2.6-1c0.4-0.3,0.6-0.5,0.5-1C190.4,176.8,190.3,166.3,190.4,163.5z"/>
			<path id="XMLID_320_" class="st17" d="M192.6,110.8c0-1.1,0-2.4-0.5-3.4c-0.2-0.4-0.6-0.8-0.9-1.1c-1.6-1.7-3.4-3.3-5.3-4.7
				c-1.2-0.8-2.6-1.6-4-2.1c-0.7-0.3-1.4-0.5-2.2-0.6c-0.7-0.2-1.5-0.2-2.3-0.5c-0.5-0.2-1.1-0.4-1.6-0.5c-0.9-0.2-1.8,0.1-2.4,0.7
				c-0.1,0.1-0.3,0.3-0.4,0.4c-0.4,0.5-0.7,1.2-0.8,1.9c-0.5,2.4,0.1,4.9,0.7,7.2c0.7,2.6,1.1,5.2,1.6,7.9c0.8,4.6,1.5,9.2,1.1,13.9
				c0,0.1,0,0.3,0,0.4c0,0.1,0.1,0.2,0.2,0.3c2.2,2,5.1,3.1,8.1,3.4c3,0.3,5.9-0.3,8.8-1.2C193.3,132.6,192.6,116.3,192.6,110.8z"/>
			<path id="XMLID_319_" class="st14" d="M185.4,89.6c0,0.2-0.1,0.3-0.1,0.5c0,0.2,0.1,0.4,0.2,0.6c0.1,0.4,0,0.8-0.1,1.2
				c-0.1,1,0,2,0,3c0,0.5,0,1-0.3,1.4c-0.4,0.5-1.2,0.7-1.5,1.3c-0.1,0.2-0.2,0.5-0.2,0.7c-0.1,0.7-0.1,1.4,0,2.2
				c-1.3,0.1-2.6,0.3-3.9,0.2c-1.3-0.1-2.6-0.4-3.7-1.1c0.5-1.7,0.4-3.7-0.4-5.3c-0.5-1.1-1.3-2-1.9-3c-0.6-1-0.9-2-0.9-3.1
				c0-0.7,0.2-1.4,0.5-2c1-2,3-3.4,5.2-3.6c1.5-0.1,3.1,0.3,4.4,1.2c0.5,0.4,1.1,0.9,1.4,1.5c0.3,0.6,0.4,1.2,0.6,1.8
				C185.2,87.8,185.6,88.7,185.4,89.6z"/>
			<path id="XMLID_318_" class="st18" d="M184.8,88c0.1,0.2,0.1,0.4,0.1,0.6c0,0.3-0.3,0.5-0.5,0.7c-0.5,0.5-0.8,1.2-0.9,1.9
				c0,0.1,0,0.1-0.1,0.2c-0.1,0-0.1,0-0.2-0.1c-0.5-0.3-1.1-0.2-1.6,0.1c-0.8,0.5-0.9,1.4-1.4,2.1c-0.5,0.8-1.1,1.4-1.8,1.9
				c-0.7,0.4-1.6,0.6-2.3,0.3c-0.7-0.3-1.1-1.1-1.5-1.8c-0.5-0.9-0.9-1.8-1.4-2.7c-0.4-0.8-0.8-1.5-0.8-2.5c0-0.9,0.2-1.8,0.6-2.6
				c1-1.6,3-2,4.6-1.1c0.6,0.3,1.3,0.7,1.9,1c0.7,0.3,1.5,0.4,2.1,0.1c0.6-0.3,1.4-0.8,2-0.2C184.2,86.5,184.5,87.3,184.8,88z"/>
			<path id="XMLID_317_" class="st21" d="M185.1,84.2c0-0.4-0.1-0.8-0.3-1.2c-0.3-0.6-1-0.9-1.6-1c-1.1-0.3-2.2-0.4-3.3-0.3
				c-1.1,0.1-2.3,0.3-3.3,0.7c-0.6,0.2-1.2,0.6-1.7,0.9c-0.5,0.3-1.1,0.8-1.2,1.4c0,0.3-0.3,0.4-0.6,0.6c-0.3,0.2-0.4,0.5-0.6,0.9
				c-0.2,0.5-0.2,1.1-0.1,1.7c0.4-0.2,0.7-0.3,1.1-0.5c0,0,0.1,0,0.1-0.1c0.2-0.1,0.5-0.3,0.6-0.5c0-0.1,0-0.1,0.1-0.2
				c0.1-0.1,0.3,0,0.4,0c0.3,0.3,0.7,0.4,1.1,0.4c1.2,0.2,2.3,0.2,3.5,0.2c0.9,0,1.8,0,2.7-0.2c0.7-0.1,1.4-0.4,2-0.9
				C184.7,85.7,185.1,84.9,185.1,84.2z"/>
			<path id="XMLID_316_" class="st14" d="M213.2,98.1c-0.4,0.7-0.6,1.6-1.3,1.9c0,0-0.1,0-0.1,0c-0.1,0-0.1-0.1-0.1-0.2
				c0.3-0.8,0.5-1.6,0.8-2.4c0.1-0.4,0.3-0.9,0.3-1.3c0-0.3,0-0.6-0.3-0.7c-0.2-0.1-0.4-0.2-0.5-0.3c0-0.1-0.1-0.2-0.1-0.2
				c-0.1-0.2-0.4-0.1-0.6,0.1c-0.3,0.3-0.4,0.8-0.6,1.2c-0.2,0.4-0.4,0.9-0.8,1c0.1-0.6,0.2-1.2,0.3-1.8c0-0.2,0.1-0.4-0.1-0.5
				c-0.1-0.1-0.3-0.1-0.4,0c-0.1,0.1-0.2,0.2-0.3,0.4c-0.4,0.8-0.6,1.7-0.9,2.6c-0.1,0.2-0.2,0.4-0.4,0.3c-0.1-0.1-0.1-0.3-0.2-0.3
				c-0.1-0.1-0.3,0-0.3,0.1c-0.1,0.1-0.1,0.2-0.1,0.4c0,0.5-0.1,1-0.3,1.5c-0.1,0.3-0.2,0.7-0.3,1c-0.1,0.3-0.1,0.7,0,1.1
				c0,0.3,0.2,0.7,0.2,1c0,0.5-0.3,1.1-0.6,1.5c-0.1,0.1-0.1,0.1-0.2,0.2c0,0,0,0,0,0c-0.6,0.7-3.7,3.3-4.5,4
				c-0.5,0.4-1.1,0.8-1.6,1.2c-0.4,0.3-0.8,0.5-1.3,0.3c-1.3-0.5-2.5-1.3-3.8-1.7l-0.3-0.1c-0.4-0.1-0.9,0.1-1.2,0.3
				c-0.4,0.2-0.8,0.4-1.1,0.7c-0.3,0.4-0.4,0.8-0.5,1.3c-0.2,0.9-0.6,1.6-1,2.5c0,0.1,0,0.1,0,0.2c0,0.1,0.1,0.1,0.1,0.1
				c0.3,0.2,0.7,0.3,1.1,0.4c1.4,0.3,2.7,0.8,4.1,1.2c1.1,0.3,2.3,0.6,3.5,0.6c0.5,0,0.9,0,1.4-0.3c3.5-2.7,6.6-6.1,9.1-9.7
				c0.1-0.1,0.1-0.2,0.2-0.3c0.4-0.4,0.7-0.8,0.9-1.3c0.8-1.3,0.9-3,1.6-4.3c0.3-0.6,0.8-1.2,0.7-1.9
				C213.5,97.7,213.3,97.9,213.2,98.1z"/>
			<path id="XMLID_315_" class="st19" d="M185.4,110.2c0,0.1,0.1,0.2,0.1,0.2c1,1.9,2.9,3.2,4.7,4.3c0.5,0.3,1,0.6,1.6,0.8
				c0.6,0.3,0.9,0.3,1.4-0.1c0.9-0.7,1.8-1.5,2.4-2.6c0.5-1,0.7-2.1,0.8-3.1c0-0.8-0.1-1-0.7-1.5c-1.1-0.7-2.1-1.4-3.2-2.1
				c-1.1-0.7-2.2-1.4-3.3-2.1c-0.8-0.5-1.6-0.4-2.4,0C184.5,105.3,184.4,108.2,185.4,110.2z"/>
		</g>
	</g>
	<g id="XMLID_66_">
		<g id="XMLID_116_">
			<path id="XMLID_117_" class="st0" d="M172.6,160.5c0.3,0.2,0.3,0.4,0,0.6l-24.2,14c-0.3,0.2-0.7,0.2-1,0l-20.2-11.7
				c-0.3-0.2-0.3-0.4,0-0.6l24.2-14c0.3-0.2,0.7-0.2,1,0L172.6,160.5z"/>
		</g>
		<g id="XMLID_100_">
			<g id="XMLID_101_" class="st4">
				<g id="XMLID_114_">
					<path id="XMLID_115_" class="st22" d="M170.9,160.5l-19.3-11.2c0,0-0.1-0.1-0.1-0.1l19.3,11.2
						C170.8,160.4,170.8,160.5,170.9,160.5z"/>
				</g>
				<g id="XMLID_112_">
					<polygon id="XMLID_113_" class="st22" points="170.8,160.4 151.5,149.1 151.3,148.2 170.6,159.4 					"/>
				</g>
				<g id="XMLID_110_">
					<path id="XMLID_111_" class="st22" d="M150.8,147.4l19.3,11.2c0.2,0.1,0.4,0.4,0.5,0.8l-19.3-11.2
						C151.2,147.8,151.1,147.6,150.8,147.4z"/>
				</g>
				<g id="XMLID_108_">
					<path id="XMLID_109_" class="st22" d="M148.3,173.4L129,162.2c-0.1-0.1-0.1-0.2-0.1-0.3l19.3,11.2
						C148.2,173.3,148.2,173.4,148.3,173.4z"/>
				</g>
				<g id="XMLID_106_">
					<polygon id="XMLID_107_" class="st22" points="148.2,173.1 128.8,161.9 128.8,159 148.2,170.2 					"/>
				</g>
				<g id="XMLID_104_">
					<polygon id="XMLID_105_" class="st23" points="148.2,170.2 128.8,159 151.4,146 170.7,157.2 					"/>
				</g>
				<g id="XMLID_102_">
					<path id="XMLID_103_" class="st24" d="M170.7,157.2l0.5,3.1l-0.2,0.1c-0.1,0.1-0.2,0-0.2-0.1l-0.2-0.9
						c-0.1-0.9-0.9-1.1-1.7-0.7c0,0-0.1,0-0.1,0.1l-12.3,8c-0.3,0.2-0.5,0.5-0.5,0.8l0,0.8c0,0.3-0.2,0.7-0.5,0.9l-6.9,4
						c-0.3,0.2-0.5,0-0.5-0.3l0-2.9L170.7,157.2z"/>
				</g>
			</g>
		</g>
		<g id="XMLID_79_">
			<g id="XMLID_80_" class="st4">
				<path id="XMLID_99_" class="st24" d="M171.3,156.5l-22.8,13.2c-0.2,0.1-0.6,0.1-0.9,0l-19-11c-0.1-0.1-0.2-0.2-0.2-0.3l0,0.8
					c0,0.1,0.1,0.2,0.2,0.3l19,11c0.2,0.1,0.6,0.1,0.9,0l22.8-13.2c0.1-0.1,0.2-0.2,0.2-0.3l0-0.8
					C171.5,156.3,171.4,156.4,171.3,156.5z"/>
				<g id="XMLID_85_">
					<path id="XMLID_86_" class="st23" d="M171.3,156c0.2,0.1,0.2,0.4,0,0.5l-22.8,13.2c-0.2,0.1-0.6,0.1-0.9,0l-19-11
						c-0.2-0.1-0.2-0.4,0-0.5l22.8-13.2c0.2-0.1,0.6-0.1,0.9,0L171.3,156z"/>
				</g>
				<g id="XMLID_83_">
					<path id="XMLID_84_" class="st24" d="M169.4,156.6l-1,0.6l-19.8,11.5c-0.2,0.1-0.6,0.1-0.8,0l-14.1-8.1l-3.3-1.9
						c-0.2-0.1-0.2-0.3,0-0.5l20.8-12c0.2-0.1,0.6-0.1,0.8,0l17.4,10C169.6,156.2,169.6,156.4,169.4,156.6z"/>
				</g>
				<g id="XMLID_81_">
					<path id="XMLID_82_" class="st22" d="M168.5,157.1l-19.8,11.5c-0.2,0.1-0.6,0.1-0.8,0l-14.1-8.1l17.4-12.8
						c0.2-0.1,0.6-0.1,0.8,0L168.5,157.1z"/>
				</g>
			</g>
		</g>
		<g id="XMLID_67_">
			<g id="XMLID_77_">
				<polygon id="XMLID_78_" class="st24" points="151.5,150.6 138.4,160.9 137.8,160.6 151,150.3 				"/>
			</g>
			<g id="XMLID_75_">
				<polygon id="XMLID_76_" class="st24" points="154.9,152.5 141.7,162.8 141.2,162.5 154.3,152.2 				"/>
			</g>
			<g id="XMLID_72_">
				<polygon id="XMLID_73_" class="st24" points="158.2,154.5 145.1,164.7 145.1,164.7 144.5,164.4 157.6,154.1 				"/>
			</g>
			<g id="XMLID_70_">
				<polygon id="XMLID_71_" class="st24" points="161.6,156.4 148.4,166.7 147.8,166.3 161,156.1 				"/>
			</g>
			<g id="XMLID_68_">
				<polygon id="XMLID_69_" class="st24" points="164.9,158.3 160.7,161.6 156.7,163.9 164.3,158 				"/>
			</g>
		</g>
	</g>
	<g id="XMLID_3_">
		<path id="XMLID_65_" class="st0" d="M213.9,210.3l-18.5-10.7c-0.4-0.2-0.3-0.6,0.1-0.8l18.2-10.5c0.4-0.2,1-0.3,1.4-0.1l18.5,10.7
			c0.4,0.2,0.3,0.6-0.1,0.8l-18.2,10.5C214.9,210.5,214.3,210.5,213.9,210.3z"/>
		<g id="XMLID_60_">
			<polygon id="XMLID_64_" class="st0" points="214.6,200.1 197,189.9 214.5,179.7 232.2,189.9 			"/>
			<polygon id="XMLID_63_" class="st2" points="214.6,199 198.9,189.9 214.5,180.8 230.3,189.9 			"/>
			<polygon id="XMLID_62_" class="st6" points="214.6,209 214.6,200.1 232.2,189.9 232.2,198.9 			"/>
			<polygon id="XMLID_61_" class="st2" points="197,189.9 197,198.8 214.6,209 214.6,200.1 			"/>
		</g>
		<g id="XMLID_4_">
			<g id="XMLID_52_">
				<g id="XMLID_53_" class="st4">
					<g id="XMLID_58_">
						<polygon id="XMLID_59_" class="st25" points="202.7,192.1 201.5,191.4 201.3,188.5 200.8,182.3 202.1,182.9 202.4,187.8 
													"/>
					</g>
					<g id="XMLID_56_">
						<polygon id="XMLID_57_" class="st26" points="202.1,182.9 200.8,182.3 216.2,173.4 217.5,174 						"/>
					</g>
					<g id="XMLID_54_">
						<polygon id="XMLID_55_" class="st27" points="218.8,192.4 212.1,196.3 211.1,196.9 211,197 211,196.8 210.3,196.5 
							209.1,195.8 208.4,195.4 207.2,194.7 206.5,194.3 205.3,193.6 204.6,193.2 203.4,192.5 202.7,192.1 202.4,187.8 202.1,182.9 
							217.5,174 217.5,174.9 217.6,176.2 217.7,177.1 217.7,177.1 217.8,178.3 217.9,179.2 217.9,180.5 218,181.3 218.1,182.6 
							218.1,182.9 218.2,183.5 218.3,184.7 						"/>
					</g>
				</g>
			</g>
			<g id="XMLID_44_">
				<g id="XMLID_45_" class="st4">
					<g id="XMLID_50_">
						<polygon id="XMLID_51_" class="st25" points="204.6,193.2 203.4,192.5 203,187.5 202.7,183.5 204,184.1 204.2,186.8 						"/>
					</g>
					<g id="XMLID_48_">
						<polygon id="XMLID_49_" class="st26" points="204,184.1 202.7,183.5 218.1,174.6 219.4,175.2 						"/>
					</g>
					<g id="XMLID_46_">
						<polygon id="XMLID_47_" class="st27" points="220.7,193.6 213,198 212.2,197.6 211.1,196.9 211,197 211,196.8 210.3,196.5 
							209.1,195.8 208.4,195.4 207.2,194.7 206.5,194.3 205.3,193.6 204.6,193.2 204.2,186.8 204,184.1 217.6,176.2 219.4,175.2 
							219.4,176.1 219.5,177.3 219.6,178.2 219.7,179.5 219.8,180.3 219.8,181.6 219.9,182.5 219.9,182.5 220,183.7 220,183.7 
							220,184 						"/>
					</g>
				</g>
			</g>
			<g id="XMLID_36_">
				<g id="XMLID_37_" class="st4">
					<g id="XMLID_42_">
						<polygon id="XMLID_43_" class="st25" points="206.5,194.3 205.3,193.6 204.8,186.5 204.6,184.6 205.9,185.2 205.9,185.8 
													"/>
					</g>
					<g id="XMLID_40_">
						<polygon id="XMLID_41_" class="st26" points="205.9,185.2 204.6,184.6 220,175.7 221.3,176.3 						"/>
					</g>
					<g id="XMLID_38_">
						<polygon id="XMLID_39_" class="st27" points="222.6,194.4 214.6,199 213,198 212.2,197.6 211.1,196.9 211,197 211,196.8 
							210.3,196.5 209.1,195.8 208.4,195.4 207.2,194.7 206.5,194.3 205.9,185.8 205.9,185.2 217.8,178.3 221.3,176.3 221.3,177.2 
							221.4,178.4 221.5,179.3 221.5,179.3 221.6,180.6 221.7,181.5 221.8,182.7 221.9,185.1 						"/>
					</g>
				</g>
			</g>
			<g id="XMLID_28_">
				<g id="XMLID_29_" class="st4">
					<g id="XMLID_34_">
						<polygon id="XMLID_35_" class="st25" points="208.4,195.4 207.2,194.7 206.5,185.7 207.8,186.3 						"/>
					</g>
					<g id="XMLID_32_">
						<polygon id="XMLID_33_" class="st26" points="207.8,186.3 206.5,185.7 221.9,176.8 223.2,177.4 						"/>
					</g>
					<g id="XMLID_30_">
						<polygon id="XMLID_31_" class="st27" points="224.3,193.3 222.6,194.4 214.6,199 213,198 212.2,197.6 211.1,196.9 211,197 
							211,196.8 210.3,196.5 209.1,195.8 208.4,195.4 207.8,186.3 215.9,181.6 217.9,180.5 219.7,179.5 221.4,178.4 223.2,177.4 
							223.3,178.3 223.3,179.6 223.4,180.4 223.5,181.7 223.8,186.2 						"/>
					</g>
				</g>
			</g>
			<g id="XMLID_20_">
				<g id="XMLID_21_" class="st4">
					<g id="XMLID_26_">
						<polygon id="XMLID_27_" class="st25" points="210.3,196.5 209.1,195.8 208.4,186.9 209.7,187.5 						"/>
					</g>
					<g id="XMLID_24_">
						<polygon id="XMLID_25_" class="st26" points="209.7,187.5 208.4,186.9 223.8,178 225.1,178.6 						"/>
					</g>
					<g id="XMLID_22_">
						<polygon id="XMLID_23_" class="st27" points="226.1,192.3 224.3,193.3 222.6,194.4 214.6,199 213,198 212.2,197.6 
							211.1,196.9 211,197 211,196.8 210.3,196.5 209.7,187.5 217.8,182.8 218.1,182.6 219.8,181.6 221.6,180.6 223.3,179.6 
							225.1,178.6 225.1,179.4 225.2,180.7 225.2,180.7 225.7,187.3 						"/>
					</g>
				</g>
			</g>
			<g id="XMLID_5_">
				<g id="XMLID_6_" class="st4">
					<g id="XMLID_18_">
						<polygon id="XMLID_19_" class="st25" points="212.2,197.6 211.1,196.9 211,197 211,196.8 210.3,188 211.6,188.6 212.1,196.3 
													"/>
					</g>
					<g id="XMLID_16_">
						<polygon id="XMLID_17_" class="st26" points="211.6,188.6 210.3,188 225.8,179.1 227,179.7 						"/>
					</g>
					<g id="XMLID_14_">
						<polygon id="XMLID_15_" class="st27" points="227.8,191.3 226.1,192.3 224.3,193.3 222.6,194.4 214.6,199 213,198 
							212.2,197.6 212.1,196.3 211.6,188.6 218.3,184.7 219.8,183.9 220,183.7 221.6,182.8 221.8,182.7 223.5,181.7 225.2,180.7 
							227,179.7 227.6,188.4 						"/>
					</g>
					<g id="XMLID_7_">
						<path id="XMLID_12_" class="st0" d="M215.9,194.2l2.2,0.2v1l-3.7-0.3l3.7-4.6v1L215.9,194.2z"/>
						<path id="XMLID_10_" class="st0" d="M219.8,195.8l-0.7,0.4c0.7-2.6,1.2-4.6,1.6-5.9l0.8-2.9l0.7-0.4L219.8,195.8z"/>
						<path id="XMLID_8_" class="st0" d="M225.3,188.8l-2.2-0.2v-1l3.8,0.3l-3.8,4.7v-1L225.3,188.8z"/>
					</g>
				</g>
			</g>
		</g>
	</g>
</g>
</svg>
