<?xml version="1.0" encoding="utf-8"?>
<!-- Generator: Adobe Illustrator 19.0.0, SVG Export Plug-In . SVG Version: 6.00 Build 0)  -->
<svg version="1.1" id="Layer_1" xmlns="http://www.w3.org/2000/svg" xmlns:xlink="http://www.w3.org/1999/xlink" x="0px" y="0px"
	 viewBox="0 0 402.7 304" style="enable-background:new 0 0 402.7 304;" xml:space="preserve">
<style type="text/css">
	.st0{fill:#FFFFFF;}
	.st1{fill:#ACD4F7;}
	.st2{fill:none;stroke:#000000;stroke-miterlimit:10;}
</style>
<g>
	<g>
		<g>
			<path class="st0" d="M215,126.1c0-13.3-0.3-56.5,0-57.1c0.4-0.9-0.6-2.5,11.5-3c13.1-0.6,29.9-4.4,30.8,3.2
				c0.3,2.8-0.2,37.4-0.2,56.5c0,3.4-5.9,2.9-9.3,3.4c-2.1,0.3-4.2,0.6-6.3,0.7c-3.2,0.1-6.5-0.3-9.7-0.6
				C226.3,128.5,220.6,128,215,126.1z"/>
			<path d="M240.2,130.3c-2.9,0-5.7-0.3-8.5-0.7c-0.7-0.1-1.3-0.2-2-0.2c-4.9-0.6-9.9-1.1-15-2.8c-0.2-0.1-0.3-0.3-0.3-0.5
				c0-4,0-10.5-0.1-18c-0.1-30.8-0.1-38.9,0.1-39.3c0-0.1,0.1-0.1,0.1-0.2c0.3-1.2,0.7-2.6,11.9-3c3-0.1,6.2-0.4,9.3-0.7
				c11-1,21.3-2,22,4.4c0.2,1.7,0.1,14.7,0,29.6c-0.1,9.5-0.1,19.4-0.1,26.9c0,3.1-4.1,3.4-7.4,3.7c-0.8,0.1-1.6,0.1-2.3,0.2
				c-2.1,0.3-4.2,0.6-6.4,0.7C241.1,130.3,240.7,130.3,240.2,130.3z M215.4,125.8c4.8,1.6,9.7,2.1,14.4,2.7c0.7,0.1,1.3,0.1,2,0.2
				c3.2,0.4,6.4,0.8,9.6,0.6c2.1-0.1,4.2-0.4,6.3-0.7c0.7-0.1,1.5-0.2,2.4-0.2c3.7-0.3,6.5-0.6,6.5-2.7c0-7.5,0.1-17.4,0.1-26.9
				c0.1-14.3,0.2-27.9,0-29.5c-0.6-5.4-10.5-4.5-21-3.5c-3.1,0.3-6.3,0.6-9.3,0.7c-10.5,0.5-10.8,1.7-11,2.3c0,0.1-0.1,0.2-0.1,0.3
				c-0.2,1.4-0.1,23.1,0,39C215.4,115.4,215.4,121.8,215.4,125.8z M215.4,69.2C215.4,69.2,215.4,69.2,215.4,69.2
				C215.4,69.2,215.4,69.2,215.4,69.2z"/>
		</g>
		<g>
			<path class="st0" d="M214.9,69c13.5,0,29.9,0.2,42.3,0.2c0-0.7,0.5-6.3-5.6-6.3c-6.9,0-19.2,0-31.2,0
				C214.9,62.9,214.8,69,214.9,69z"/>
			<path d="M257.3,69.7c-6.1,0-13,0-20.3-0.1c-7.4-0.1-15.2-0.1-22-0.1c0,0-0.1,0-0.1,0c-0.5-0.1-0.5-0.7-0.4-1.2
				c0.2-2.8,2-5.9,6.1-5.9c6.8,0,13.8,0,19.7,0c4.5,0,8.5,0,11.5,0c1.9,0,3.4,0.5,4.4,1.6c1.7,1.7,1.6,4.2,1.6,5c0,0.1,0,0.2,0,0.2
				c0,0.1,0,0.3-0.1,0.4C257.5,69.6,257.4,69.7,257.3,69.7z M215.4,68.5c6.8,0,14.3,0.1,21.6,0.1c7.1,0,13.8,0.1,19.8,0.1
				c0-0.9-0.1-2.8-1.4-4c-0.8-0.8-2.1-1.3-3.7-1.3c-3,0-7,0-11.5,0c-6,0-12.9,0-19.7,0c-1.6,0-2.8,0.5-3.7,1.5
				C215.7,66.1,215.5,67.8,215.4,68.5z"/>
		</g>
		<g>
			<path class="st0" d="M214.9,125.5c0,0.1-0.1,2.4,0.9,4.5c0.8,1.7,4.9,3.5,6.9,3.5c9.4,0.1,16.4,0,25.8,0c7.8,0,8.6-6.1,8.6-8.3
				C247.6,125.2,229.1,125.3,214.9,125.5z"/>
			<path d="M229.7,134.1c-2.2,0-4.6,0-7,0c-2.1,0-6.5-1.9-7.3-3.8c-0.8-1.9-0.9-3.9-0.9-4.7c0-0.1,0-0.3,0.1-0.4
				c0.1-0.1,0.2-0.2,0.3-0.2c14.9-0.2,33.1-0.3,42.2-0.3c0.3,0,0.5,0.2,0.5,0.5c0,2.1-0.7,8.8-9.1,8.8c-3.6,0-6.8,0-9.9,0
				C235.6,134,232.8,134.1,229.7,134.1z M215.4,125.9c0,0.9,0.2,2.4,0.8,3.9c0.6,1.5,4.5,3.2,6.4,3.2c5.9,0.1,10.7,0,15.9,0
				c3.1,0,6.3,0,9.9,0c6.9,0,8-5.1,8.1-7.3C247.4,125.7,230,125.8,215.4,125.9z"/>
		</g>
		<g>
			<path d="M231.9,130.3c-0.3,0-0.5-0.2-0.5-0.5c0-0.3,0.2-0.5,0.5-0.5c2.8-0.1,5.6-0.1,8.4-0.1c0.3,0,0.5,0.2,0.5,0.5
				c0,0.3-0.2,0.5-0.5,0.5C237.5,130.2,234.7,130.2,231.9,130.3C231.9,130.3,231.9,130.3,231.9,130.3z"/>
		</g>
		<g>
			<path d="M240.3,90.5h-19.5c-0.1,0-0.2-0.1-0.2-0.2c0-0.1,0.1-0.2,0.2-0.2h19.5c0.1,0,0.2,0.1,0.2,0.2
				C240.4,90.4,240.4,90.5,240.3,90.5z"/>
		</g>
		<g>
			<path d="M238.6,97.3h-17.8c-0.1,0-0.2-0.1-0.2-0.2c0-0.1,0.1-0.2,0.2-0.2h17.8c0.1,0,0.2,0.1,0.2,0.2
				C238.7,97.2,238.7,97.3,238.6,97.3z"/>
		</g>
		<g>
			<path d="M233.1,104.4h-12.3c-0.1,0-0.2-0.1-0.2-0.2c0-0.1,0.1-0.2,0.2-0.2h12.3c0.1,0,0.2,0.1,0.2,0.2
				C233.3,104.3,233.2,104.4,233.1,104.4z"/>
		</g>
		<g>
			<path d="M238.6,111.3h-17.7c-0.1,0-0.2-0.1-0.2-0.2c0-0.1,0.1-0.2,0.2-0.2h17.7c0.1,0,0.2,0.1,0.2,0.2
				C238.7,111.3,238.7,111.3,238.6,111.3z"/>
		</g>
	</g>
	<g>
		<path class="st0" d="M246.5,88.9c-6.6-7.7-8.8-22.3-2.4-30.3s17.5-9.9,27.1-6.6c10,3.4,14.2,10.8,14.2,19.8
			c0,9.4-3.5,17.1-15.3,20.6c-4.2,1.2-8.7,1.2-13,0.7c-1-0.1-2-0.3-3,0c-1.3,0.4-2.2,1.4-3.2,2.4c-2.3,2.4-4.4,5.3-7.8,6.1
			C241.6,102,246.6,93.9,246.5,88.9z"/>
		<path d="M243,102.1c-0.3,0-0.5-0.2-0.5-0.2c-0.4-0.5-0.1-1.3,1-3.9c1.1-2.6,2.5-6.2,2.5-8.9c-6.6-7.8-8.9-22.5-2.3-30.7
			c6.1-7.6,17.2-10.3,27.7-6.7c9.5,3.2,14.5,10.2,14.5,20.3c0,5.2-1.1,9.4-3.3,12.8c-2.6,3.9-6.6,6.6-12.4,8.3
			c-3.8,1.1-8.1,1.3-13.2,0.7l-0.1,0c-0.9-0.1-1.8-0.2-2.6,0c-1.1,0.3-1.9,1.2-2.7,2l-0.2,0.2c-0.4,0.4-0.8,0.9-1.2,1.3
			c-1.9,2.1-3.9,4.2-6.8,4.9C243.2,102.1,243.1,102.1,243,102.1z M243.3,101.3L243.3,101.3L243.3,101.3z M262.1,51
			c-7,0-13.5,2.8-17.7,7.9c-2.9,3.6-4.2,8.9-3.5,14.8c0.6,5.6,2.8,11,6,14.8c0.1,0.1,0.1,0.2,0.1,0.3c0.1,2.9-1.5,6.7-2.6,9.5
			c-0.4,1-0.9,2.2-1,2.7c2.5-0.7,4.2-2.6,6-4.5c0.4-0.4,0.8-0.9,1.2-1.3l0.2-0.2c0.9-0.9,1.9-1.9,3.2-2.3c1-0.3,2-0.2,3,0l0.1,0
			c5,0.7,9.1,0.4,12.8-0.6c10.2-3,15-9.4,15-20.2c0-9.6-4.8-16.3-13.8-19.4C268.1,51.5,265.1,51,262.1,51z"/>
	</g>
	<g>
		<path class="st1" d="M262.7,60.9c1-0.4,2.8,7.2,2.8,7.2s7-0.6,7.6,0.6c0.6,1.2-5.8,5.2-5.8,5.2s2.6,7.7,1.8,8.1
			c-1.2,0.7-6.4-4.3-6.4-4.3s-5.5,4.7-6.4,4.3c-0.5-0.2,2-7.9,2-7.9s-6.1-3.9-5.7-4.9c0.3-0.9,7.4-0.8,7.4-0.8
			S261.4,61.5,262.7,60.9z"/>
		<path d="M268.9,82.6c-1.5,0-4.4-2.4-6.2-4.2c-3.6,3.1-5.9,4.4-6.6,4.1c-0.4-0.2-0.8-0.4,1.6-8.1c-0.5-0.3-1.6-1.1-2.7-1.9
			c-2.7-2-3.1-2.8-2.9-3.4c0.2-0.4,0.6-0.9,4.2-1.1c1.3-0.1,2.5-0.1,3.2-0.1c0.5-2,1.7-6.9,3-7.5c0,0,0,0,0,0c0.2-0.1,0.4-0.1,0.6,0
			c1,0.5,2.2,4.9,2.8,7.1c2.8-0.2,7.1-0.3,7.7,0.9c0.7,1.3-2.6,3.7-5.6,5.7c2.6,7.7,1.8,8.2,1.4,8.4
			C269.2,82.5,269.1,82.6,268.9,82.6z M262.7,77.3c0.1,0,0.2,0,0.3,0.1c2.4,2.3,5,4.2,5.8,4.2c0.1-0.9-0.9-4.5-1.9-7.6
			c-0.1-0.2,0-0.5,0.2-0.6c2.9-1.8,5.5-4,5.6-4.6c-0.4-0.4-3.7-0.6-7.1-0.3c-0.2,0-0.5-0.1-0.5-0.4c-0.7-2.8-1.7-6.1-2.3-6.8
			c-0.6,0.6-1.6,3.7-2.4,7.1c0,0.2-0.3,0.4-0.5,0.4c0,0,0,0,0,0c-2.8-0.1-6.1,0.1-6.8,0.5c0.4,0.7,3,2.7,5.5,4.3
			c0.2,0.1,0.3,0.4,0.2,0.6c-0.9,2.9-1.8,6.1-2,7.2c1-0.4,3.6-2.3,5.7-4.1C262.4,77.3,262.6,77.3,262.7,77.3z M252.9,69.5
			L252.9,69.5L252.9,69.5z"/>
	</g>
</g>
<g>
	<g>
		<path class="st0" d="M107.8,207.6v31.3c0,1.4-1.5,3-3.3,3l-48.6,0c-2.5,0-3.8-2.3-3.8-3.7l0.2-31c0-1.4,1.5-3.1,3.3-3.1l48.2-0.1
			C105.7,203.9,107.8,205.5,107.8,207.6z"/>
		<path d="M104.5,242.4H56c-2.7,0-4.3-2.5-4.3-4.2l0.2-31c0-1.7,1.7-3.6,3.8-3.6l48.2-0.1c2.1,0,4.4,1.7,4.4,4.2v31.3
			C108.3,240.5,106.7,242.4,104.5,242.4z M103.9,204.4l-48.2,0.1c-1.5,0-2.8,1.5-2.8,2.7l-0.2,31c0,1.1,1,3.2,3.3,3.2h48.6
			c1.6,0,2.8-1.3,2.8-2.5v-31.3C107.3,205.8,105.5,204.4,103.9,204.4z"/>
	</g>
	<g>
		<path d="M80.6,227.6c-0.6,0-1.2-0.1-1.9-0.3c-1-0.3-2-1-2.7-1.5c-8.3-5.9-16.2-12.4-23.4-19.6c-0.2-0.2-0.2-0.5,0-0.7
			c0.2-0.2,0.5-0.2,0.7,0c7.1,7.1,14.9,13.6,23.2,19.5c0.9,0.6,1.6,1.1,2.4,1.4c2.9,1,6-1.1,8.4-3c6.9-5.5,13.5-11.4,19.5-17.8
			c0.2-0.2,0.5-0.2,0.7,0c0.2,0.2,0.2,0.5,0,0.7c-6.1,6.4-12.7,12.4-19.6,17.9C86,225.8,83.3,227.6,80.6,227.6z"/>
	</g>
	<g>
		<path d="M54.6,238.7c0,0-0.1,0-0.1-0.1c-0.1-0.1-0.1-0.2,0-0.2c5.5-4.7,11.2-9.3,17-13.7c0.1-0.1,0.2,0,0.2,0c0.1,0.1,0,0.2,0,0.2
			c-5.7,4.4-11.4,9-16.9,13.7C54.7,238.7,54.6,238.7,54.6,238.7z"/>
	</g>
	<g>
		<path d="M105.6,239.5c0,0-0.1,0-0.1,0c-5.3-4.9-10.8-9.8-16.3-14.4c-0.1-0.1-0.1-0.2,0-0.2c0.1-0.1,0.2-0.1,0.2,0
			c5.5,4.7,11,9.5,16.3,14.5c0.1,0.1,0.1,0.2,0,0.2C105.7,239.5,105.7,239.5,105.6,239.5z"/>
	</g>
</g>
<g>
	<path class="st0" d="M269.8,122.8c0.8,5.7,1.9,11.7,0.4,17.4c-0.8,3.1-0.7,18.9,11.9,23.4c6.7,2.4,14.3,1.9,21.2-2.3
		c4.7-2.8,10.3-11.6,9.2-20.3c3.9,1.1,7.7-1.5,7.7-5c0-2-2.2-4.5-4.5-4.4c-1.8,0.1-2,0.1-3.4,1.2c-0.9-4.1-1.5-8.2-1.4-13
		c-4.4-4.8-11.4-7.3-18.4-8.3c-2.3-0.3-4.7-0.6-7.1-0.3C278.7,112,269,116.9,269.8,122.8z"/>
	<path d="M290.4,165.5c-2.8,0-5.6-0.5-8.4-1.5c-12.7-4.5-13.2-20.2-12.2-24c1.3-4.9,0.5-10.1-0.2-15.1c-0.1-0.7-0.2-1.4-0.3-2.1l0,0
		c-0.2-1.7,0.3-3.3,1.5-4.9c3-3.9,9.7-6.7,14.5-7.3c2.6-0.3,5.2,0,7.2,0.3c5.8,0.9,13.8,3.1,18.7,8.5c0.1,0.1,0.1,0.2,0.1,0.3
		c-0.1,4,0.3,7.9,1.3,12.1c1-0.7,1.4-0.7,3-0.8c1.2-0.1,2.4,0.5,3.4,1.4c1,1,1.7,2.3,1.6,3.5c0,1.7-0.9,3.3-2.3,4.4
		c-1.5,1.1-3.4,1.6-5.3,1.2c0.8,8.9-4.9,17.3-9.5,20.1C299.4,164.2,294.9,165.5,290.4,165.5z M287.7,111.5c-0.7,0-1.5,0-2.3,0.1
		c-4.6,0.6-11,3.2-13.9,6.9c-1.1,1.4-1.5,2.8-1.3,4.2c0.1,0.7,0.2,1.4,0.3,2.1c0.7,5.1,1.5,10.4,0.1,15.5
		c-0.6,2.1-1.3,18.2,11.6,22.8c6.9,2.5,14.3,1.7,20.8-2.2c4.4-2.6,10.1-11.2,9-19.8c0-0.2,0-0.3,0.2-0.4c0.1-0.1,0.3-0.1,0.5-0.1
		c1.8,0.5,3.7,0.2,5.2-0.9c1.2-0.9,1.9-2.2,1.9-3.6c0-0.9-0.5-1.9-1.3-2.7c-0.8-0.8-1.8-1.2-2.6-1.1c-1.7,0.1-1.9,0.1-3.1,1.1
		c-0.1,0.1-0.3,0.1-0.5,0.1c-0.2-0.1-0.3-0.2-0.3-0.4c-1-4.5-1.5-8.6-1.4-12.9c-4.8-5.1-12.4-7.2-18-8
		C291.1,111.7,289.5,111.5,287.7,111.5z"/>
</g>
<g>
	<path d="M297.5,145.9c-4.1,0-7.8-3.4-8.4-8c-0.6-5,2.5-9.5,7-10.1c2.2-0.3,4.4,0.4,6.1,1.9c1.8,1.5,2.9,3.6,3.2,6l0,0
		c0.3,2.4-0.2,4.8-1.6,6.7c-1.3,1.9-3.3,3.1-5.5,3.4C298.1,145.9,297.8,145.9,297.5,145.9z M297.1,128.8c-0.3,0-0.6,0-0.8,0.1
		c-4,0.5-6.7,4.5-6.2,9c0.6,4.4,4.3,7.6,8.2,7.1c1.9-0.2,3.6-1.3,4.8-3c1.2-1.7,1.7-3.8,1.4-6l0,0c-0.3-2.2-1.3-4.1-2.9-5.4
		C300.3,129.4,298.7,128.8,297.1,128.8z"/>
</g>
<g>
	<path d="M274.6,147c-4.1,0-7.8-3.4-8.4-8c-0.6-5,2.5-9.5,7-10.1c2.2-0.3,4.4,0.4,6.1,1.9c1.8,1.5,2.9,3.6,3.2,6
		c0.3,2.4-0.2,4.8-1.6,6.7c-1.3,1.9-3.3,3.1-5.5,3.4C275.2,146.9,274.9,147,274.6,147z M274.2,129.8c-0.3,0-0.6,0-0.8,0.1
		c-4,0.5-6.7,4.5-6.2,9c0.6,4.4,4.3,7.6,8.2,7.1c1.9-0.2,3.6-1.3,4.8-3c1.2-1.7,1.7-3.8,1.4-6l0,0c-0.3-2.2-1.3-4.1-2.9-5.4
		C277.4,130.4,275.8,129.8,274.2,129.8z"/>
</g>
<g>
	<path class="st1" d="M311.8,133.3c-3.7-5.7-6-9.9-7.2-16.9c-13.7,8.1-26.6,6.7-39.7,6.2c-0.3-2.2,0.2-4.5,1.1-6.6
		c2.3-5.2,5.1-9.6,13-13.2c5.5-2.5,13-4.1,19-3.2c6,0.9,11.1,4.1,15.3,7.9c3.3,3.1,6.1,8.1,7.1,13.1c0.8,4.3-0.2,7.4-2.1,11.8
		c-1.1-0.6-2.1-1.2-3.3-0.9C313.7,131.7,312.9,132.4,311.8,133.3z"/>
	<path d="M311.8,133.8C311.8,133.8,311.8,133.8,311.8,133.8c-0.2,0-0.3-0.1-0.4-0.2c-3.3-5.2-5.8-9.4-7.1-16.3
		c-12.4,7.1-24.4,6.6-36.1,6c-1.1,0-2.2-0.1-3.3-0.1c-0.2,0-0.4-0.2-0.5-0.4c-0.3-2.2,0.1-4.5,1.1-6.9c2.1-4.7,4.8-9.7,13.2-13.4
		c5-2.2,12.6-4.2,19.3-3.3c5.4,0.8,10.6,3.5,15.5,8.1c3.5,3.2,6.3,8.4,7.3,13.4c0.9,4.6-0.4,8-2.1,12.1c-0.1,0.1-0.2,0.2-0.3,0.3
		c-0.1,0-0.3,0-0.4,0l-0.1-0.1c-1-0.5-1.8-1-2.9-0.8c-1.2,0.2-1.9,0.8-2.8,1.7C312.1,133.8,312,133.8,311.8,133.8z M304.6,116
		c0.1,0,0.1,0,0.2,0c0.1,0.1,0.3,0.2,0.3,0.4c1.2,7,3.6,11.2,6.8,16.2c0.9-0.7,1.7-1.3,2.9-1.5c1.2-0.2,2.2,0.2,3.2,0.7
		c1.9-4.3,2.6-7.2,1.9-11c-0.9-4.7-3.7-9.8-7-12.8c-4.8-4.4-9.8-7.1-15-7.8c-6.4-0.9-13.9,1-18.7,3.2c-8.1,3.6-10.7,8.4-12.7,12.9
		c-0.9,2-1.3,4.1-1.1,5.9c1,0,1.9,0.1,2.9,0.1c11.7,0.5,23.7,1.1,36.1-6.3C304.5,116,304.5,116,304.6,116z"/>
</g>
<g>
	<path d="M292,155.2c-1,0-1.9-0.3-2.6-0.9c-0.2-0.2-0.2-0.5-0.1-0.7c0.2-0.2,0.5-0.2,0.7-0.1c0.9,0.8,2.3,0.9,3.7,0.3
		c1.6-0.7,2.9-1.9,3.6-3.6c0.1-0.2,0.4-0.4,0.7-0.2c0.2,0.1,0.4,0.4,0.2,0.7c-0.9,1.9-2.3,3.3-4.1,4.1
		C293.4,155.1,292.7,155.2,292,155.2z"/>
</g>
<g>
	<ellipse transform="matrix(0.9918 -0.1281 0.1281 0.9918 -15.1636 38.9731)" cx="295.5" cy="137.4" rx="1.4" ry="1.3"/>
</g>
<g>
	<ellipse transform="matrix(0.9918 -0.1281 0.1281 0.9918 -15.4693 36.3719)" cx="275.1" cy="138.5" rx="1.4" ry="1.3"/>
</g>
<g>
	<path d="M284.1,146.7c-0.1,0-0.1,0-0.2,0l-1.9-0.7c-0.2-0.1-0.7-0.2-0.8-0.7c-0.2-0.5,0.1-1,0.3-1.2c1.4-1.9,1.9-4.3,1.2-6.5
		c-0.1-0.3,0.1-0.5,0.3-0.6c0.3-0.1,0.5,0.1,0.6,0.3c0.7,2.5,0.2,5.2-1.4,7.4c0,0.1-0.1,0.2-0.2,0.3c0,0,0.1,0,0.2,0.1l1.9,0.7
		c0.3,0.1,0.4,0.4,0.3,0.6C284.5,146.5,284.3,146.7,284.1,146.7z"/>
</g>
<g>
	<path d="M281.7,135.6c-0.3,0-0.5-0.2-0.5-0.5c0-1.3,1.2-2.2,2.5-2.5c2-0.5,4.3,0,5.8,1.3c0.2,0.2,0.2,0.5,0,0.7
		c-0.2,0.2-0.5,0.2-0.7,0c-1.3-1.1-3.2-1.6-5-1.1c-0.9,0.2-1.7,0.8-1.7,1.5C282.2,135.3,282,135.6,281.7,135.6
		C281.7,135.6,281.7,135.6,281.7,135.6z"/>
</g>
<g>
	<path d="M304.5,133.4c-0.3,0-0.5-0.2-0.5-0.5c0-0.3,0.2-0.5,0.5-0.5l6.7,0c0.3,0,0.5,0.2,0.5,0.5c0,0.3-0.2,0.5-0.5,0.5
		L304.5,133.4C304.5,133.4,304.5,133.4,304.5,133.4z"/>
</g>
<g>
	<path d="M312.4,138.1C312.4,138.1,312.4,138.1,312.4,138.1c-0.3,0-0.5-0.2-0.5-0.5c0-1.6-0.3-3.3-1-4.8c-0.1-0.3,0-0.5,0.3-0.6
		c0.3-0.1,0.5,0,0.6,0.3c0.7,1.6,1.1,3.4,1,5.2C312.9,137.8,312.7,138.1,312.4,138.1z"/>
</g>
<g>
	<g>
		<path d="M359.2,264.1c-0.1,0-0.2,0-0.3,0c-9.4-1.7-56.9-10.4-71.5-18.2c-3.5-1.9-6-4.8-8.7-7.9c-1.1-1.2-2.2-2.5-3.4-3.8
			c-3.8,11.5-8.4,18.7-14,22c-5,2.9-9.7,2.2-13.5,1.7c-0.3,0-0.5-0.1-0.7-0.1c-4-0.6-6.6-4.9-9.1-9.1c-2.1-3.5-4.2-7.1-7.1-8.4
			c-3.1-1.3-6.1-4.3-5.8-8c0.3-3.6,3.3-6.4,9.3-8.5c0.4-0.2,0.9-0.1,1.3,0.1c1.9,0.9,3.3,5.6,4.7,10c0.9,3,2.2,7.1,3,7.3
			c0.1,0,0.2-0.1,0.2-0.2c9.6-11.1,13.9-28.8,16.2-38.3c0.6-2.4,1-4.3,1.5-5.6c4.4-13.4,14.6-16.5,19.4-18c0.8-0.2,1.5-0.4,2-0.6
			c0.2-0.1,0.3,0,0.5,0.1c0.1,0.1,0.2,0.2,0.2,0.4c0,4.1,1.1,7.1,3.2,9c3.4,3,8.7,2.4,10.7,2.1l0.1,0c5.4-0.6,15.8-6.5,16.4-15.3
			c0-0.1,0.1-0.3,0.2-0.3c0.1-0.1,0.2-0.1,0.4-0.1c8.7,0.6,17,4,24.6,10.4c11.7,9.8,16,22.4,20.5,35.8c0.9,2.8,1.9,5.7,3,8.5l0,0
			c5.1,13.9,2.1,27.8-0.4,33.8C361.6,263.5,360.1,264.1,359.2,264.1z M275.1,232.8c0.1,0,0.3,0.1,0.3,0.1c1.5,1.5,2.8,3,4,4.4
			c2.6,3,5,5.8,8.4,7.6c14.5,7.8,61.9,16.5,71.2,18.1c0.5,0.1,1.7-0.4,1.9-0.7c0.3-0.6,6.7-15.9,0.4-33l0,0c-1-2.9-2-5.7-3-8.5
			c-4.5-13.3-8.7-25.8-20.2-35.4c-7.3-6.1-15.2-9.5-23.5-10.1c-0.5,5-3.9,8.7-6.6,10.9c-3.2,2.5-7.3,4.4-10.6,4.8l-0.1,0
			c-2.1,0.3-7.7,0.9-11.4-2.4c-2.2-2-3.4-5-3.5-9c-0.4,0.1-0.9,0.3-1.4,0.4c-5.1,1.5-14.6,4.4-18.8,17.3c-0.4,1.2-0.9,3.1-1.4,5.5
			c-2.3,9.6-6.6,27.5-16.4,38.7c-0.4,0.5-0.9,0.5-1.2,0.5c-1.3-0.3-2.3-3.1-3.8-7.9c-1.2-3.9-2.7-8.7-4.2-9.5
			c-0.2-0.1-0.4-0.1-0.6,0c-5.6,2-8.4,4.5-8.6,7.6c-0.2,3.2,2.6,5.9,5.2,7c3.2,1.4,5.4,5.1,7.6,8.8c2.5,4.2,4.8,8.1,8.4,8.6
			c0.2,0,0.5,0.1,0.7,0.1c7.2,1.1,18.2,2.6,26.6-23.8c0.1-0.2,0.2-0.3,0.4-0.3C275,232.8,275.1,232.8,275.1,232.8z"/>
	</g>
</g>
<g>
	<path class="st0" d="M255.8,262.2c11.1,0.2,22.2,0.5,33.3,0.7l0-5.7l-37.1-0.9L255.8,262.2z"/>
	<path d="M289.1,263.4C289.1,263.4,289.1,263.4,289.1,263.4l-33.3-0.7c-0.2,0-0.3-0.1-0.4-0.2l-3.7-5.9c-0.1-0.2-0.1-0.3,0-0.5
		c0.1-0.2,0.3-0.3,0.4-0.3l37.1,0.9c0.3,0,0.5,0.2,0.5,0.5l0,5.7c0,0.1-0.1,0.3-0.1,0.4C289.3,263.3,289.2,263.4,289.1,263.4z
		 M256,261.7l32.6,0.7l0-4.7l-35.7-0.9L256,261.7z"/>
</g>
<g>
	<path class="st0" d="M344.4,244.9c-13.4-0.7-26.9-1.7-40.3-2.6c-1.2-0.2-7.2-1.1-8.7-1.3c-1.3-0.2-2.4-0.6-3.6-1.2
		c-4-1.8-12.6-5.5-14.5-4.4c-4.4,1.3-8.4,4.5-11.6,8.5c-1.8,2.3-3.2,6-2.5,6.7c0.5,0.4,1.2,0.6,1.7,0.2c2.1-4.5,5.8-8.1,10.3-10.2
		c-2.1,1.2-4,2.6-5.8,4.2c-1.8,1.7-3.4,3.7-3.8,6.1c0,0.2-0.1,0.4,0,0.6c0.2,0.4,0.9,0.2,1.2-0.1c0.7-0.6,9.9-8,11.6-7.8
		c-2.3,0.9-10.4,7.5-10.5,8.2c0,0.3,0,0.7,0.3,1c0.3,0.4,0.8,0.5,1.3,0.4c0.5-0.1,0.9-0.3,1.3-0.5c2.6-1.6,5-3.6,7.9-4.8
		c1.4-0.6,3.2-0.9,4.4-0.1c-2.5,1-4.9,2.4-6.9,4.2c-0.3,0.3-0.6,0.6-0.8,1c-0.3,0.6-0.7,1.4-0.2,1.8c0.7,0.8,1.3,0.4,1.9,0
		c2.4-1.6,4.9-2.9,7.5-4c0.8-0.3,1.8-0.6,2.5-0.1c0.6,0.4,3.7,2.3,10,2.6c2.2,0.1,4.2,0.7,6.9,1.4c35.5,9.8,46.1,13.7,54.7,10
		c1.7-0.7,2.3-1.6,1.7-4.5C359,252.4,357.6,248,344.4,244.9z"/>
	<path d="M351.6,266.5c-6.8,0-16.5-2.7-34.7-7.8c-3.8-1.1-8.2-2.3-12.9-3.6c-2.5-0.7-4.7-1.3-6.8-1.4c-5.9-0.3-9.1-2-10.3-2.7
		c-0.5-0.4-1.4-0.1-2.1,0.2c-2.5,1-5,2.3-7.5,3.9l-0.1,0c-0.6,0.4-1.5,0.9-2.5-0.1c-0.7-0.8-0.1-2,0.2-2.4c0.2-0.4,0.5-0.8,0.9-1.1
		c1.7-1.6,3.7-2.8,5.9-3.8c-1-0.2-2.1,0.2-2.9,0.5c-1.9,0.8-3.6,1.9-5.2,3.1c-0.8,0.6-1.7,1.2-2.6,1.7c-0.4,0.3-0.9,0.5-1.4,0.6
		c-0.7,0.1-1.3-0.1-1.7-0.6c-0.3-0.3-0.4-0.8-0.4-1.3c0-0.1,0.1-0.2,0.2-0.3c-0.1,0.1-0.1,0.1-0.2,0.2c-0.2,0.1-0.3,0.2-0.3,0.3
		c-0.3,0.3-0.8,0.5-1.3,0.4c-0.3,0-0.5-0.2-0.6-0.4c-0.1-0.2-0.1-0.3-0.1-0.5c-0.6,0.4-1.5,0.3-2.2-0.3c-1.2-1.1,0.9-5.4,2.4-7.3
		c3.4-4.4,7.5-7.4,11.8-8.7c2.3-1.2,11.2,2.7,14.9,4.4c0.9,0.4,2.2,0.9,3.5,1.1c0.4,0.1,1.1,0.2,2,0.3c2.4,0.3,5.7,0.8,6.6,1
		c13.1,0.9,26.7,1.8,40.3,2.6c0,0,0.1,0,0.1,0c13.5,3.2,15,7.8,16.5,15.6c0.6,2.9,0.1,4.2-2,5C356.8,266,354.5,266.5,351.6,266.5z
		 M286.3,249.8c0.4,0,0.8,0.1,1.2,0.3c1.1,0.7,4.1,2.3,9.8,2.6c2.3,0.1,4.5,0.7,7,1.4c4.7,1.3,9.1,2.5,12.9,3.6
		c25.5,7.1,34.2,9.6,41.4,6.4c1.4-0.6,1.9-1.2,1.4-3.9c-1.5-7.6-2.9-11.8-15.7-14.9c-13.6-0.8-27.1-1.7-40.3-2.6c0,0,0,0,0,0
		c-0.9-0.1-4.3-0.6-6.6-1c-0.9-0.1-1.6-0.2-2-0.3c-1.4-0.2-2.7-0.8-3.7-1.2c-7.2-3.3-12.9-5.1-14.1-4.4c0,0-0.1,0-0.1,0
		c-4,1.2-8,4.2-11.3,8.4c-1.8,2.3-2.8,5.5-2.5,6c0.2,0.2,0.6,0.4,0.9,0.2c2.1-4.5,5.9-8.2,10.5-10.3c0.2-0.1,0.5,0,0.6,0.2
		c0.1,0.2,0,0.5-0.2,0.7c-2.1,1.2-4,2.6-5.7,4.2c-2.2,2-3.3,3.9-3.6,5.8c0,0.1,0,0.2,0,0.2c0.1,0,0.3-0.1,0.5-0.2
		c0.1,0,0.2-0.1,0.3-0.2c9.9-7.9,11.2-7.8,11.7-7.7c0.2,0,0.4,0.2,0.4,0.4c0,0.2-0.1,0.4-0.3,0.5c-2.1,0.8-9.5,6.8-10.2,7.8
		c0,0.2,0.1,0.4,0.2,0.5c0.2,0.2,0.5,0.3,0.8,0.2c0.4-0.1,0.7-0.3,1.1-0.5c0.9-0.5,1.7-1.1,2.6-1.7c1.7-1.2,3.5-2.3,5.4-3.1
		c1.4-0.6,3.4-1.1,4.9,0c0.2,0.1,0.2,0.3,0.2,0.5c0,0.2-0.1,0.3-0.3,0.4c-2.6,1-4.9,2.4-6.7,4.1c-0.3,0.3-0.5,0.6-0.7,0.9
		c-0.5,0.9-0.4,1.2-0.3,1.3c0.4,0.4,0.6,0.3,1.3,0l0,0c2.5-1.7,5-3,7.6-4C285,250,285.7,249.8,286.3,249.8z M268.5,251.8
		L268.5,251.8L268.5,251.8z"/>
</g>
<g>
	<g>
		<polygon class="st1" points="161.1,210.5 233.5,210.9 258.5,262.2 186.7,262 		"/>
		<path d="M258.5,262.7C258.5,262.7,258.5,262.7,258.5,262.7l-71.8-0.2c-0.2,0-0.4-0.1-0.4-0.3l-25.7-51.5c-0.1-0.2-0.1-0.3,0-0.5
			c0.1-0.1,0.2-0.2,0.4-0.2c0,0,0,0,0,0l72.5,0.4c0.2,0,0.4,0.1,0.4,0.3l25,51.3c0.1,0.2,0.1,0.3,0,0.5
			C258.8,262.6,258.7,262.7,258.5,262.7z M187,261.5l70.7,0.2l-24.5-50.3l-71.3-0.4L187,261.5z"/>
	</g>
	<g>
		<path class="st0" d="M206.9,231.4c-2.1-0.2-4.3,0.3-5.1,2.2c-0.8,1.9-0.2,4.3,1.3,5.6c1.5,1.4,3.8,1.8,5.8,1.4
			c1.1-0.2,2.2-0.8,2.8-1.7c0.4-0.6,0.6-1.4,0.6-2.2C212.3,234.2,211.2,231.8,206.9,231.4z"/>
		<path d="M207.3,241.3c-1.7,0-3.4-0.6-4.6-1.7c-1.7-1.6-2.3-4.2-1.4-6.2c0.8-1.8,2.9-2.8,5.6-2.5l0,0c4.9,0.5,5.9,3.5,5.9,5.9
			c0,0.9-0.3,1.8-0.7,2.5c-0.8,1.2-2.1,1.7-3.1,1.9C208.4,241.3,207.9,241.3,207.3,241.3z M206.1,231.8c-1.2,0-3.2,0.3-3.9,2
			c-0.7,1.6-0.2,3.8,1.2,5.1c1.3,1.2,3.4,1.7,5.4,1.3c1.1-0.3,2-0.8,2.5-1.5c0.4-0.6,0.5-1.4,0.5-1.9c0-3-1.6-4.6-5-4.9l0,0
			C206.7,231.9,206.4,231.8,206.1,231.8z"/>
	</g>
</g>
<g>
	<path d="M336.4,244.9c-0.2,0-0.4-0.1-0.5-0.3c-5-15.3-7.9-24.9-7.9-45.9c0-0.3,0.2-0.5,0.5-0.5c0.3,0,0.5,0.2,0.5,0.5
		c0,20.8,2.8,30.4,7.8,45.6c0.1,0.3-0.1,0.5-0.3,0.6C336.5,244.9,336.4,244.9,336.4,244.9z"/>
</g>
<g>
	<path d="M329.2,95.4c0,0-0.1,0-0.1-0.1c-1-1.2-2.2-2.2-3.5-3c-0.1,0-0.1-0.1-0.1-0.2c0-0.1,0.1-0.1,0.2-0.1
		c1.4,0.8,2.6,1.9,3.6,3.1c0.1,0.1,0.1,0.2,0,0.2C329.2,95.4,329.2,95.4,329.2,95.4z"/>
</g>
<g>
	<path d="M312.6,129.9c-0.1,0-0.1,0-0.1-0.1c-1.4-2.2-2.5-4.5-3.5-6.9c0-0.1,0-0.2,0.1-0.2c0.1,0,0.2,0,0.2,0.1
		c0.9,2.4,2.1,4.7,3.5,6.8C312.8,129.7,312.8,129.8,312.6,129.9C312.7,129.9,312.6,129.9,312.6,129.9z"/>
</g>
<g>
	<path d="M315.2,129.4c-0.1,0-0.1,0-0.1-0.1l-1.4-2.6c0-0.1,0-0.2,0.1-0.2c0.1,0,0.2,0,0.2,0.1l1.4,2.6
		C315.4,129.2,315.3,129.3,315.2,129.4C315.2,129.4,315.2,129.4,315.2,129.4z"/>
</g>
<g>
	<path d="M363,249.1c0,0-0.1,0-0.1-0.1c-6.1-7.1-16-10.7-25.2-9.2c-0.1,0-0.2,0-0.2-0.1c0-0.1,0-0.2,0.1-0.2
		c9.3-1.6,19.4,2,25.5,9.3c0.1,0.1,0.1,0.2,0,0.2C363.1,249,363,249.1,363,249.1z"/>
</g>
<g>
	<path d="M384,242.5C384,242.5,384,242.5,384,242.5c-1-0.4-1.8-1.1-2.6-1.8c-0.3-0.2-0.5-0.5-0.8-0.7c-1.7-1.4-3.8-2.3-6-2.7
		c-0.1,0-0.2-0.1-0.1-0.2c0-0.1,0.1-0.2,0.2-0.1c2.3,0.3,4.4,1.3,6.2,2.7c0.3,0.2,0.6,0.5,0.8,0.7c0.8,0.7,1.5,1.4,2.5,1.7
		c0.1,0,0.1,0.1,0.1,0.2C384.2,242.4,384.1,242.5,384,242.5z"/>
</g>
<g>
	<rect x="80.5" y="192.2" class="st1" width="4.6" height="4.9"/>
	<path d="M85.1,197.6h-4.6c-0.3,0-0.5-0.2-0.5-0.5v-4.9c0-0.3,0.2-0.5,0.5-0.5h4.6c0.3,0,0.5,0.2,0.5,0.5v4.9
		C85.6,197.4,85.4,197.6,85.1,197.6z M81,196.6h3.6v-3.9H81V196.6z"/>
</g>
<g>
	<g>
		<path class="st0" d="M180.5,149.5c0-29,0.4-61.6,0.4-92.6c-45.7,0-89.1-0.4-128.7-0.4c0.3,30.9,0.4,60.4,0.4,92.7
			C90.4,149.2,140.5,149.5,180.5,149.5z"/>
		<path d="M180.5,150c-20.3,0-43.4-0.1-65.8-0.1c-22.4-0.1-43.5-0.1-62.1-0.1c-0.3,0-0.5-0.2-0.5-0.5c0-28.7-0.1-59.7-0.4-92.7
			c0-0.1,0-0.3,0.1-0.4C52,56,52.1,56,52.2,56c19.1,0,38.9,0.1,59.8,0.2c22.3,0.1,45.3,0.2,68.9,0.2c0.3,0,0.5,0.2,0.5,0.5
			c0,15.7-0.1,32-0.2,47.8c-0.1,15.7-0.2,30.5-0.2,44.8C181,149.7,180.8,150,180.5,150z M53.1,148.7c18.5,0,39.4,0.1,61.6,0.1
			c22.2,0.1,45.1,0.1,65.3,0.1c0-14.1,0.1-28.8,0.2-44.3c0.1-15.6,0.2-31.7,0.2-47.3c-23.5,0-46.3-0.1-68.4-0.2
			C91.3,57.1,71.7,57,52.7,57C53.1,89.6,53.1,120.3,53.1,148.7z"/>
	</g>
	<g>
		<path class="st0" d="M194.3,134.2c0-27.9,0.1-60.7,0.1-90.5c-46,0-89.8-0.4-129.7-0.4c0.3,29.7,0.7,59.6,0.7,90.6
			C103.5,133.9,154,134.2,194.3,134.2z"/>
		<path d="M194.3,134.7c-20.5,0-43.8-0.1-66.3-0.1c-22.5-0.1-43.8-0.1-62.6-0.1c-0.3,0-0.5-0.2-0.5-0.5c0-30.7-0.3-60.8-0.7-89.8
			l0-0.8c0-0.1,0-0.3,0.1-0.4c0.1-0.1,0.2-0.1,0.4-0.1c19.2,0,39.2,0.1,60.2,0.2c22.4,0.1,45.6,0.2,69.4,0.2c0.3,0,0.5,0.2,0.5,0.5
			c0,15.1,0,31.2-0.1,46.7c0,15.5-0.1,30.1-0.1,43.8C194.8,134.5,194.6,134.7,194.3,134.7z M66,133.4c18.6,0,39.7,0.1,62.1,0.1
			c22.3,0.1,45.4,0.1,65.8,0.1c0-13.6,0-28,0.1-43.3c0-15.4,0.1-31.2,0.1-46.2c-23.6,0-46.7-0.1-69-0.2c-20.9-0.1-40.7-0.2-59.7-0.2
			l0,0.3C65.6,73,66,102.9,66,133.4z"/>
	</g>
	<g>
		<path class="st1" d="M171,37.9c-18.7-0.1-37.4-0.2-56.1-0.4c-15.8-0.1-34.1,0.2-50,0c-0.2,4.3-0.2,7.7,0,10.4
			c40.7,0,88.5-0.6,129.4,0c0.2-2.7,0.1-6.5,0.1-9.9C187.5,38,177.9,37.9,171,37.9z"/>
		<path d="M64.9,48.3c-0.3,0-0.5-0.2-0.5-0.5c-0.2-2.7-0.2-6,0-10.5c0-0.3,0.2-0.5,0.5-0.5c0,0,0,0,0,0c8.4,0.1,17.6,0.1,26.5,0
			c7.9,0,16-0.1,23.4,0c17.3,0.2,36.9,0.3,56.1,0.4c2.8,0,6.1,0,9.5,0.1c4.9,0,9.9,0.1,14,0.1c0.3,0,0.5,0.2,0.5,0.5c0,1,0,2,0,3
			c0,2.4,0.1,4.9-0.1,6.9c0,0.3-0.2,0.5-0.5,0.5c0,0,0,0,0,0c-27.5-0.4-58.1-0.3-87.7-0.1C92,48.3,78.2,48.3,64.9,48.3z M65.4,38
			c-0.2,4-0.2,7,0,9.4c13.1,0,26.8-0.1,41.2-0.1c29.4-0.1,59.8-0.3,87.3,0.1c0.1-1.8,0.1-4.1,0.1-6.3c0-0.9,0-1.7,0-2.6
			c-4,0-8.8,0-13.5-0.1c-3.4,0-6.6,0-9.5-0.1h0c-19.2-0.1-38.8-0.2-56.1-0.4c-7.4-0.1-15.6,0-23.4,0C82.7,38,73.7,38.1,65.4,38z"/>
	</g>
	<g>
		<g>
			<path d="M184.4,41.6c-0.5-0.1-0.9,0.2-1.2,0.5c-0.2,0.3-0.2,0.7-0.1,1c0.2,0.3,0.5,0.6,0.9,0.6c0.6,0,1.1-0.5,1.1-1
				C185.2,42.2,184.8,41.7,184.4,41.6z"/>
		</g>
		<g>
			<path d="M174.2,41.6c-0.5-0.1-0.9,0.2-1.2,0.5c-0.2,0.3-0.2,0.7-0.1,1c0.2,0.3,0.5,0.6,0.9,0.6c0.6,0,1.1-0.5,1.1-1
				C175,42.2,174.6,41.7,174.2,41.6z"/>
		</g>
		<g>
			<path d="M163.3,41.6c-0.5-0.1-0.9,0.2-1.2,0.5c-0.2,0.3-0.2,0.7-0.1,1c0.2,0.3,0.5,0.6,0.9,0.6c0.6,0,1.1-0.5,1.1-1
				C164.2,42.2,163.7,41.7,163.3,41.6z"/>
		</g>
	</g>
	<g>
		<path d="M128.1,77.9H83c-0.3,0-0.5-0.2-0.5-0.5V60.1c0-0.3,0.2-0.5,0.5-0.5h45.1c0.3,0,0.5,0.2,0.5,0.5v17.3
			C128.6,77.7,128.4,77.9,128.1,77.9z M83.5,76.9h44.1V60.6H83.5V76.9z"/>
	</g>
	<g>
		<path d="M106.3,102.9H83c-0.3,0-0.5-0.2-0.5-0.5V89.1c0-0.3,0.2-0.5,0.5-0.5h23.4c0.3,0,0.5,0.2,0.5,0.5v13.3
			C106.8,102.7,106.6,102.9,106.3,102.9z M83.5,101.9h22.4V89.6H83.5V101.9z"/>
	</g>
	<g>
		<path d="M143.6,102.9h-23.4c-0.3,0-0.5-0.2-0.5-0.5V89.1c0-0.3,0.2-0.5,0.5-0.5h23.4c0.3,0,0.5,0.2,0.5,0.5v13.3
			C144.1,102.7,143.8,102.9,143.6,102.9z M120.7,101.9h22.4V89.6h-22.4V101.9z"/>
	</g>
	<g>
		<path d="M180.8,102.9h-23.4c-0.3,0-0.5-0.2-0.5-0.5V89.1c0-0.3,0.2-0.5,0.5-0.5h23.4c0.3,0,0.5,0.2,0.5,0.5v13.3
			C181.3,102.7,181.1,102.9,180.8,102.9z M157.9,101.9h22.4V89.6h-22.4V101.9z"/>
	</g>
	<g>
		<path d="M169.1,63.7C169.1,63.7,169.1,63.7,169.1,63.7l-27-0.2c-0.1,0-0.2-0.1-0.2-0.2c0-0.1,0.1-0.2,0.2-0.2c0,0,0,0,0,0l27,0.2
			c0.1,0,0.2,0.1,0.2,0.2C169.3,63.6,169.2,63.7,169.1,63.7z"/>
	</g>
	<g>
		<path d="M163.8,69C163.8,69,163.8,69,163.8,69l-21.7-0.2c-0.1,0-0.2-0.1-0.2-0.2c0-0.1,0.1-0.2,0.2-0.2c0,0,0,0,0,0l21.7,0.2
			c0.1,0,0.2,0.1,0.2,0.2C164,69,163.9,69,163.8,69z"/>
	</g>
	<g>
		<path d="M169.1,74.4C169.1,74.4,169.1,74.4,169.1,74.4l-27-0.2c-0.1,0-0.2-0.1-0.2-0.2c0-0.1,0.1-0.2,0.2-0.2c0,0,0,0,0,0l27,0.2
			c0.1,0,0.2,0.1,0.2,0.2C169.3,74.3,169.2,74.4,169.1,74.4z"/>
	</g>
	<g>
		<g>
			<path d="M104.1,111.3C104.1,111.3,104.1,111.3,104.1,111.3l-18.9-0.2c-0.1,0-0.2-0.1-0.2-0.2c0-0.1,0.1-0.2,0.2-0.2c0,0,0,0,0,0
				l18.9,0.2c0.1,0,0.2,0.1,0.2,0.2C104.3,111.3,104.2,111.3,104.1,111.3z"/>
		</g>
		<g>
			<path d="M102.3,116.7C102.3,116.7,102.3,116.7,102.3,116.7L87,116.5c-0.1,0-0.2-0.1-0.2-0.2c0-0.1,0.1-0.2,0.2-0.2c0,0,0,0,0,0
				l15.2,0.2c0.1,0,0.2,0.1,0.2,0.2C102.4,116.6,102.4,116.7,102.3,116.7z"/>
		</g>
	</g>
	<g>
		<g>
			<path d="M141.4,111.3C141.4,111.3,141.4,111.3,141.4,111.3l-18.9-0.2c-0.1,0-0.2-0.1-0.2-0.2c0-0.1,0.1-0.2,0.2-0.2c0,0,0,0,0,0
				l18.9,0.2c0.1,0,0.2,0.1,0.2,0.2C141.5,111.3,141.4,111.3,141.4,111.3z"/>
		</g>
		<g>
			<path d="M139.5,116.7C139.5,116.7,139.5,116.7,139.5,116.7l-15.2-0.2c-0.1,0-0.2-0.1-0.2-0.2c0-0.1,0.1-0.2,0.2-0.2l15.2,0.2
				c0.1,0,0.2,0.1,0.2,0.2C139.7,116.6,139.6,116.7,139.5,116.7z"/>
		</g>
	</g>
	<g>
		<g>
			<path d="M178.6,111.3C178.6,111.3,178.6,111.3,178.6,111.3l-18.9-0.2c-0.1,0-0.2-0.1-0.2-0.2c0-0.1,0.1-0.2,0.2-0.2c0,0,0,0,0,0
				l18.9,0.2c0.1,0,0.2,0.1,0.2,0.2C178.7,111.3,178.7,111.3,178.6,111.3z"/>
		</g>
		<g>
			<path d="M176.7,116.7C176.7,116.7,176.7,116.7,176.7,116.7l-15.2-0.2c-0.1,0-0.2-0.1-0.2-0.2c0-0.1,0.1-0.2,0.2-0.2l15.2,0.2
				c0.1,0,0.2,0.1,0.2,0.2C176.9,116.6,176.8,116.7,176.7,116.7z"/>
		</g>
	</g>
</g>
<g>
	<g>
		<g>
			<path class="st0" d="M189.5,143h-79.9c-8.6,0-15.7,7-15.7,15.7v0c0,8.6,7,15.7,15.7,15.7H171c0.8,3.7,3.1,7.2,6.3,9.2
				c1.7,1,3.5,1.7,5.1,2.7c1.6,1.1,3.6,3.1,4.1,4.9c0.8,3.2,6.7,4.1,7.9,10.7c0.7-2.1,1.5-4.5,0.5-6.5c-0.6-1.3-1.8-2.2-2.2-3.5
				c-0.7-2,0.6-4.3-0.2-6.2c-0.6-1.7-2.5-2.5-3.7-3.8c-1.4-1.6-2-3.8-1.9-5.9c0-0.5,0.1-1.1,0.1-1.6h2.4c8.6,0,15.7-7,15.7-15.7v0
				C205.2,150,198.2,143,189.5,143z"/>
			<path d="M194.5,202.3C194.5,202.3,194.4,202.3,194.5,202.3c-0.3,0-0.4-0.2-0.5-0.4c-0.7-3.8-3-5.6-5-7.2c-1.4-1.1-2.6-2.1-3-3.5
				c-0.4-1.7-2.3-3.6-3.9-4.6c-0.8-0.6-1.8-1-2.7-1.4c-0.8-0.4-1.6-0.8-2.4-1.3c-3.2-1.9-5.6-5.3-6.5-9.1h-61
				c-8.9,0-16.1-7.2-16.1-16.1c0-8.9,7.2-16.1,16.1-16.1h79.9c8.9,0,16.1,7.2,16.1,16.1c0,8.9-7.2,16.1-16.1,16.1h-2
				c0,0.4-0.1,0.7-0.1,1.1c-0.1,2.2,0.6,4.2,1.8,5.5c0.4,0.4,0.9,0.8,1.4,1.2c1,0.8,1.9,1.6,2.4,2.8c0.4,1.1,0.3,2.3,0.2,3.4
				c-0.1,1-0.2,2,0.1,2.8c0.2,0.7,0.7,1.2,1.1,1.8c0.4,0.5,0.8,1,1.1,1.7c1,2.1,0.3,4.6-0.5,6.9
				C194.9,202.2,194.7,202.3,194.5,202.3z M109.6,143.5c-8.4,0-15.2,6.8-15.2,15.2c0,8.4,6.8,15.2,15.2,15.2H171
				c0.2,0,0.4,0.2,0.5,0.4c0.8,3.7,3.1,7,6.1,8.8c0.7,0.5,1.6,0.8,2.3,1.2c0.9,0.5,1.9,0.9,2.8,1.5c1.8,1.2,3.8,3.3,4.3,5.2
				c0.3,1.1,1.4,2,2.6,3c1.7,1.4,3.8,3.1,4.9,6.1c0.5-1.6,0.7-3.2,0-4.6c-0.2-0.5-0.6-1-1-1.5c-0.5-0.6-1-1.3-1.3-2.1
				c-0.4-1.1-0.2-2.2-0.1-3.3c0.1-1.1,0.2-2.1-0.1-2.9c-0.4-1-1.2-1.6-2.1-2.4c-0.5-0.4-1-0.8-1.5-1.3c-1.4-1.5-2.1-3.7-2.1-6.2
				c0-0.5,0.1-1.1,0.1-1.6c0-0.2,0.2-0.4,0.5-0.4h2.4c8.4,0,15.2-6.8,15.2-15.2c0-8.4-6.8-15.2-15.2-15.2H109.6z"/>
		</g>
	</g>
	<g>
		<path class="st1" d="M114.2,150.7c0.7-0.3,1.9,4.9,1.9,4.9s4.8-0.4,5.1,0.4c0.4,0.8-3.9,3.5-3.9,3.5s1.8,5.2,1.2,5.5
			c-0.8,0.5-4.4-2.9-4.4-2.9s-3.7,3.2-4.4,2.9c-0.3-0.1,1.4-5.3,1.4-5.3s-4.1-2.6-3.9-3.3c0.2-0.6,5-0.5,5-0.5
			S113.3,151,114.2,150.7z"/>
		<path d="M118.4,165.5c-1,0-2.8-1.4-4.2-2.8c-3.7,3.1-4.3,2.8-4.5,2.7c-0.4-0.2-0.7-0.3,1-5.6c-4.1-2.6-3.8-3.4-3.7-3.7
			c0.1-0.3,0.3-0.9,5-0.9c0.4-1.9,1.2-4.7,2.1-5c0,0,0,0,0,0c0.2-0.1,0.4-0.1,0.5,0c0.7,0.3,1.4,2.7,1.9,4.8c3.1-0.2,4.9,0,5.2,0.7
			c0.2,0.3,0.6,1.2-3.7,4c1.7,5.2,1.2,5.5,0.9,5.7C118.7,165.4,118.5,165.5,118.4,165.5z M114.2,161.5c0.1,0,0.2,0,0.3,0.1
			c1.4,1.4,3,2.5,3.6,2.8c-0.1-0.8-0.7-3-1.3-4.8c-0.1-0.2,0-0.5,0.2-0.6c1.8-1.1,3.3-2.4,3.6-2.9c-0.6-0.2-2.8-0.3-4.6-0.1
			c-0.2,0-0.5-0.1-0.5-0.4c-0.4-1.7-1-3.6-1.4-4.3c-0.4,0.7-1,2.7-1.4,4.5c-0.1,0.2-0.3,0.4-0.5,0.4c-1.7,0-3.6,0.1-4.4,0.3
			c0.5,0.6,2.1,1.8,3.5,2.7c0.2,0.1,0.3,0.4,0.2,0.6c-0.5,1.7-1.1,3.6-1.3,4.5c0.8-0.4,2.3-1.6,3.5-2.6
			C113.9,161.6,114.1,161.5,114.2,161.5z M120.8,156.2L120.8,156.2L120.8,156.2z"/>
	</g>
	<g>
		<path class="st1" d="M138,150.7c0.7-0.3,1.9,4.9,1.9,4.9s4.8-0.4,5.2,0.4c0.4,0.8-3.9,3.5-3.9,3.5s1.8,5.2,1.2,5.5
			c-0.8,0.5-4.4-2.9-4.4-2.9s-3.7,3.2-4.4,2.9c-0.3-0.1,1.4-5.3,1.4-5.3s-4.1-2.6-3.9-3.3c0.2-0.6,5-0.5,5-0.5S137.1,151,138,150.7z
			"/>
		<path d="M142.2,165.5c-1,0-2.8-1.4-4.2-2.8c-3.7,3.1-4.3,2.8-4.5,2.7c-0.4-0.2-0.7-0.3,1-5.6c-4.1-2.6-3.8-3.4-3.7-3.7
			c0.1-0.3,0.3-0.9,5-0.9c0.4-1.9,1.2-4.7,2.1-5c0,0,0,0,0,0c0.2-0.1,0.4-0.1,0.5,0c0.7,0.3,1.4,2.7,1.9,4.8c3.1-0.2,4.9,0,5.2,0.7
			c0.2,0.3,0.6,1.2-3.7,4c1.7,5.2,1.2,5.5,0.9,5.7C142.4,165.4,142.3,165.5,142.2,165.5z M138,161.5c0.1,0,0.2,0,0.3,0.1
			c1.4,1.3,3,2.5,3.6,2.8c-0.1-0.8-0.7-3-1.3-4.8c-0.1-0.2,0-0.5,0.2-0.6c1.8-1.1,3.3-2.4,3.6-2.9c-0.6-0.2-2.8-0.3-4.6-0.1
			c-0.2,0-0.5-0.1-0.5-0.4c-0.4-1.7-1-3.6-1.4-4.3c-0.4,0.7-1,2.7-1.4,4.5c-0.1,0.2-0.2,0.4-0.5,0.4c-1.7,0-3.6,0.1-4.4,0.3
			c0.5,0.6,2.1,1.8,3.5,2.7c0.2,0.1,0.3,0.4,0.2,0.6c-0.5,1.7-1.1,3.6-1.3,4.5c0.8-0.4,2.3-1.6,3.5-2.6
			C137.7,161.6,137.8,161.5,138,161.5z M144.6,156.2L144.6,156.2L144.6,156.2z"/>
	</g>
	<g>
		<path class="st1" d="M161.7,150.7c0.7-0.3,1.9,4.9,1.9,4.9s4.8-0.4,5.1,0.4c0.4,0.8-3.9,3.5-3.9,3.5s1.8,5.2,1.2,5.5
			c-0.8,0.5-4.4-2.9-4.4-2.9s-3.7,3.2-4.4,2.9c-0.3-0.1,1.4-5.3,1.4-5.3s-4.1-2.6-3.9-3.3c0.2-0.6,5-0.5,5-0.5
			S160.9,151,161.7,150.7z"/>
		<path d="M166,165.5c-1,0-2.8-1.4-4.2-2.8c-3.7,3.1-4.3,2.8-4.5,2.7c-0.4-0.2-0.7-0.3,1-5.6c-4.1-2.6-3.8-3.4-3.7-3.7
			c0.1-0.3,0.3-0.9,5-0.9c0.4-1.9,1.2-4.7,2.1-5h0c0.2-0.1,0.4-0.1,0.5,0c0.7,0.3,1.4,2.7,1.9,4.8c3.1-0.2,4.9,0,5.2,0.7
			c0.2,0.3,0.6,1.2-3.7,4c1.7,5.2,1.2,5.5,0.9,5.7C166.2,165.4,166.1,165.5,166,165.5z M161.7,161.5c0.1,0,0.2,0,0.3,0.1
			c1.4,1.3,3,2.5,3.6,2.8c-0.1-0.8-0.7-3-1.3-4.8c-0.1-0.2,0-0.5,0.2-0.6c1.8-1.1,3.3-2.4,3.6-2.9c-0.6-0.2-2.8-0.3-4.6-0.1
			c-0.2,0-0.5-0.1-0.5-0.4c-0.4-1.7-1-3.6-1.4-4.3c-0.4,0.7-1,2.7-1.4,4.5c0,0.2-0.3,0.4-0.5,0.4c0,0,0,0,0,0
			c-1.7,0-3.6,0.1-4.4,0.3c0.5,0.6,2.1,1.8,3.5,2.7c0.2,0.1,0.3,0.4,0.2,0.6c-0.5,1.7-1.1,3.6-1.3,4.5c0.8-0.4,2.3-1.6,3.5-2.6
			C161.5,161.6,161.6,161.5,161.7,161.5z M168.4,156.2L168.4,156.2L168.4,156.2z"/>
	</g>
	<g>
		<path class="st1" d="M185.5,150.7c0.7-0.3,1.9,4.9,1.9,4.9s4.8-0.4,5.1,0.4c0.4,0.8-3.9,3.5-3.9,3.5s1.8,5.2,1.2,5.5
			c-0.8,0.5-4.4-2.9-4.4-2.9s-3.7,3.2-4.4,2.9c-0.3-0.1,1.4-5.3,1.4-5.3s-4.1-2.6-3.9-3.3c0.2-0.6,5-0.5,5-0.5
			S184.7,151,185.5,150.7z"/>
		<path d="M189.7,165.5c-1,0-2.8-1.4-4.2-2.8c-3.7,3.1-4.3,2.8-4.5,2.7c-0.4-0.2-0.7-0.3,1-5.6c-4.1-2.6-3.8-3.4-3.7-3.7
			c0.1-0.3,0.3-0.9,5-0.9c0.4-1.9,1.2-4.7,2.1-5l0,0c0.2-0.1,0.4-0.1,0.5,0c0.7,0.3,1.4,2.7,1.9,4.8c3.1-0.2,4.9,0,5.2,0.7
			c0.2,0.3,0.6,1.2-3.7,4c1.7,5.2,1.2,5.5,0.9,5.7C190,165.4,189.9,165.5,189.7,165.5z M185.5,161.5c0.1,0,0.2,0,0.3,0.1
			c1.4,1.3,3,2.5,3.6,2.8c-0.1-0.8-0.7-3-1.3-4.8c-0.1-0.2,0-0.5,0.2-0.6c1.8-1.1,3.3-2.4,3.6-2.9c-0.6-0.2-2.8-0.3-4.6-0.1
			c-0.2,0-0.5-0.1-0.5-0.4c-0.4-1.7-1-3.6-1.4-4.3c-0.4,0.7-1,2.7-1.4,4.5c0,0.2-0.3,0.4-0.5,0.4c0,0,0,0,0,0
			c-1.7,0-3.6,0.1-4.4,0.3c0.5,0.6,2.1,1.8,3.5,2.7c0.2,0.1,0.3,0.4,0.2,0.6c-0.5,1.7-1.1,3.6-1.3,4.5c0.8-0.4,2.3-1.6,3.5-2.6
			C185.3,161.6,185.4,161.5,185.5,161.5z M192.2,156.2L192.2,156.2L192.2,156.2z"/>
	</g>
</g>
<g>
	<path class="st0" d="M60.8,189.7c-2.2-2.2-7.3-8.2-7.8-9c-0.6-1-0.9-2.1-0.8-3.2c0.2-2,2.2-3.7,4.3-3.8c2.1,0,3.8,1.6,4.2,3.5
		c0.3-1.5,2-3.7,4-3.7c2,0,4.1,1.2,4.4,3.5c0.1,1.1-0.3,2.5-0.9,3.7C66.4,184.5,62.5,188.1,60.8,189.7z"/>
	<path d="M60.8,190.2c-0.1,0-0.2,0-0.3-0.1c-2.2-2.1-7.4-8.3-7.9-9.1c-0.5-0.8-1-2.1-0.9-3.5c0.3-2.3,2.4-4.2,4.8-4.2
		c1.8,0,3.4,1,4.2,2.6c0.7-1.4,2.2-2.7,3.9-2.7c0,0,0,0,0,0c2.1,0,4.6,1.3,4.9,4c0.1,1.1-0.2,2.6-0.9,4c-1.8,3.6-5.6,7.2-7.4,8.9
		l-0.2,0.2C61.1,190.1,61,190.2,60.8,190.2z M56.6,174.1C56.6,174.1,56.6,174.1,56.6,174.1c-1.9,0-3.7,1.6-3.9,3.3
		c-0.1,1.2,0.3,2.2,0.7,2.9c0.4,0.7,5,6.2,7.4,8.6c1.8-1.7,5.3-5.1,7-8.4c0.6-1.2,0.9-2.6,0.8-3.5c-0.2-2.1-2.2-3.1-3.9-3.1
		c-1.8,0-3.2,1.9-3.5,3.2c0,0.2-0.2,0.4-0.5,0.4c-0.2,0-0.4-0.2-0.5-0.4C59.9,175.7,58.6,174.1,56.6,174.1z"/>
</g>
<g>
	<g>
		<path class="st0" d="M134.7,220.2c-4.6-1.2-9.7,0.6-12.8,3.9c-3.1,3.4-4.2,8.2-3.2,12.6c1.1,5,6.1,8.8,10,9.2
			c6.3,0.7,11.5-2.1,13.1-4c3-3.4,4.3-8.1,3.2-12.4C143.9,225.2,140.3,221.6,134.7,220.2z"/>
		<path d="M130.7,246.5c-0.7,0-1.4,0-2.1-0.1c-4.1-0.5-9.3-4.5-10.4-9.6c-1-4.6,0.3-9.6,3.3-13c3.3-3.6,8.6-5.3,13.2-4.1
			c5.5,1.4,9.5,5,10.7,9.7c1.1,4.3-0.2,9.2-3.3,12.8C140.5,244.2,136,246.5,130.7,246.5z M131.7,220.3c-3.5,0-7,1.5-9.4,4.1
			c-2.9,3.1-4.1,7.8-3.1,12.1c1,4.7,5.9,8.4,9.6,8.8c6.4,0.7,11.3-2.2,12.7-3.8c2.9-3.4,4.1-7.9,3.1-11.9c-1.1-4.3-4.8-7.7-10-9l0,0
			C133.6,220.4,132.7,220.3,131.7,220.3z"/>
	</g>
	<g>
		<polygon class="st1" points="127.7,228.8 125.5,231 132,239.1 138.3,228.8 136,226.7 131.6,233.7 		"/>
		<path d="M132,239.6c-0.1,0-0.3-0.1-0.4-0.2l-6.5-8.1c-0.2-0.2-0.1-0.5,0-0.7l2.2-2.2c0.1-0.1,0.2-0.2,0.4-0.1
			c0.1,0,0.3,0.1,0.4,0.2l3.4,4.3l4-6.4c0.1-0.1,0.2-0.2,0.3-0.2c0.1,0,0.3,0,0.4,0.1l2.3,2.1c0.2,0.2,0.2,0.4,0.1,0.6l-6.3,10.3
			C132.3,239.5,132.2,239.6,132,239.6C132,239.6,132,239.6,132,239.6z M126.2,231l5.8,7.2l5.7-9.3l-1.6-1.4l-4.1,6.5
			c-0.1,0.1-0.2,0.2-0.4,0.2c-0.2,0-0.3-0.1-0.4-0.2l-3.5-4.4L126.2,231z"/>
	</g>
</g>
<g>
	<path d="M94.9,177.8c-0.1,0-0.1,0-0.2,0c-3.9-1.8-6.7-5.5-7.4-9.7c0-0.3,0.1-0.5,0.4-0.6c0.3,0,0.5,0.1,0.6,0.4
		c0.6,3.8,3.3,7.4,6.8,9c0.2,0.1,0.4,0.4,0.2,0.7C95.3,177.7,95.1,177.8,94.9,177.8z"/>
</g>
<g>
	<path d="M88.3,180.5c0,0-0.1,0-0.1,0c-2-0.6-4-1.6-5.5-3.1c-0.2-0.2-0.2-0.5,0-0.7c0.2-0.2,0.5-0.2,0.7,0c1.4,1.3,3.2,2.3,5.1,2.9
		c0.3,0.1,0.4,0.3,0.3,0.6C88.7,180.4,88.5,180.5,88.3,180.5z"/>
</g>
<path d="M275.5,232.9c0,0-3.1-11.4-4.7-22.2s-0.2-11.4-0.2-11.4"/>
<polyline class="st2" points="284.7,164.3 286.8,175.3 282.9,179.3 "/>
<polyline class="st2" points="303.3,161.3 306.5,172.4 314.4,174.8 "/>
</svg>
